<svg width="1127" height="171" xmlns="http://www.w3.org/2000/svg"><g fill="none" fill-rule="evenodd"><path fill="#4F4F4F" d="M344.146.507h20.283v135.931h-20.283z"/><path d="M1105.877 36.489h20.283V52.48h-20.283v57.97c0 7.728 6.357 13.993 14.198 13.993 2.178 0 4.24-.483 6.085-1.346v7.232a24.45 24.45 0 0 1-16.226 6.108c-13.443 0-24.34-10.74-24.34-23.988V.507h20.283v35.982zM963.934 84.784a57.034 57.034 0 0 1-.036-2.039c0-30.404 24.215-55.052 54.087-55.052 29.872 0 54.088 24.648 54.088 55.052 0 30.405-24.216 55.052-54.088 55.052-12.906 0-24.757-4.6-34.055-12.28v44.904h-20.032V84.784h.036zm54.051 32.624c18.808 0 34.055-15.52 34.055-34.663 0-19.143-15.247-34.662-34.055-34.662S983.93 63.602 983.93 82.745c0 19.144 15.247 34.663 34.055 34.663zM820.04 136.438h-20.658V76.024c1.125-26.87 23.814-48.33 51.646-48.33 8.016 0 14.657 2.229 21.427 5.406l-6.17 18.64c-4.505-2.488-9.71-3.909-15.257-3.909-16.42 0-29.857 12.45-30.92 28.193l-.068 60.414zM794.87 34.398l-15.307 14.274c-7.639-16.617-24.596-28.175-44.287-28.175-26.845 0-48.607 21.48-48.607 47.976s21.762 47.975 48.607 47.975c17.768 0 33.31-9.41 41.787-23.456l14.13 15.153c-12.501 17.136-32.89 28.293-55.917 28.293-38.03 0-68.86-30.43-68.86-67.965 0-37.537 30.83-67.966 68.86-67.966 25.45 0 47.674 13.627 59.593 33.891z" fill="#31A217"/><path d="M429.784 136.438c-29.871 0-54.087-24.343-54.087-54.372 0-30.03 24.216-54.373 54.087-54.373 29.872 0 54.088 24.344 54.088 54.373 0 30.029-24.216 54.372-54.088 54.372zm0-20.138c18.808 0 34.055-15.327 34.055-34.234 0-18.908-15.247-34.235-34.055-34.235S395.73 63.158 395.73 82.066c0 18.907 15.247 34.234 34.055 34.234zM274.54 20.497v36.981h39.025v19.99H274.54v58.97H254V.507h81.131v19.99zM479.364 27.693H643.88l-48.15 108.745-32.101-65.247-32.101 65.247-52.164-108.745zm20.063 0l32.1 66.92 32.102-66.92 32.1 66.92 28.088-66.92h-124.39z" fill="#4F4F4F"/><g fill="#31A217"><path d="M880.312 170.42h20.082l64.263-142.727h-20.082z"/><path d="M871.958 32.75l41.931 88.422 41.931-88.421h.804l-52.213 109.124-43.78-99.909 7.632-9.215h3.695z"/></g><g><path d="M28.941 77.812l31.982 30.885-26.777 27.728a6 6 0 0 1-8.484.148l-23.35-22.548a6 6 0 0 1-.148-8.484l26.777-27.729z" fill="#4F4F4F"/><path d="M67.623 37.757l71.958 69.49-26.777 27.728a6 6 0 0 1-8.484.148L36.678 69.8l30.945-32.044z" fill="#31A217" opacity=".9"/><path d="M110.62 1.869l103.304 99.759a6 6 0 0 1 .148 8.484l-22.61 23.412a6 6 0 0 1-8.483.148L75.359 29.745l26.777-27.728a6 6 0 0 1 8.484-.148z" fill="#31A217"/></g></g></svg>