<svg width="216" height="139" xmlns="http://www.w3.org/2000/svg"><g fill="none" fill-rule="evenodd"><path d="M28.941 77.812l31.982 30.885-26.777 27.728a6 6 0 0 1-8.484.148l-23.35-22.548a6 6 0 0 1-.148-8.484l26.777-27.729z" fill="#4F4F4F"/><path d="M67.623 37.757l71.958 69.49-26.777 27.728a6 6 0 0 1-8.484.148L36.678 69.8l30.945-32.044z" fill="#31A217" opacity=".9"/><path d="M110.62 1.869l103.304 99.759a6 6 0 0 1 .148 8.484l-22.61 23.412a6 6 0 0 1-8.483.148L75.359 29.745l26.777-27.728a6 6 0 0 1 8.484-.148z" fill="#31A217"/></g></svg>