<?xml version="1.0" encoding="UTF-8"?>
<svg width="791px" height="937px" viewBox="0 0 791 937" version="1.1" xmlns="http://www.w3.org/2000/svg" xmlns:xlink="http://www.w3.org/1999/xlink">
    <!-- Generator: Sketch 42 (36781) - http://www.bohemiancoding.com/sketch -->
    <title>Shape</title>
    <desc>Created with Sketch.</desc>
    <defs>
        <radialGradient cx="86.6419409%" cy="25.3141152%" fx="86.6419409%" fy="25.3141152%" r="107.476011%" id="radialGradient-1">
            <stop stop-color="#31A217" offset="0%"></stop>
            <stop stop-color="#337A23" offset="100%"></stop>
        </radialGradient>
        <path d="M482.699214,252.072692 C471.785388,254.877484 463.599768,265.803055 464.050409,276.966002 C464.501424,288.128948 473.541225,298.372373 484.646327,300.30262 L629.896444,325.769381 C472.342848,466.07182 198.002772,600.920206 -56.8776036,547.481736 C-64.8840621,548.428637 -64.5358061,541.672519 -68.5116143,553.996113 C-72.4875474,566.319706 -13.5628433,795.557517 -0.462088296,793.046218 C362.735871,723.424367 518.023101,578.825705 717.903318,411.041677 L737.763244,549.944469 C739.27221,561.086177 749.36084,570.485041 760.676583,571.293371 C771.9922,572.092955 783.335678,564.229543 786.439565,553.416414 L892.501037,186.483973 C895.046464,177.927171 891.683962,168.633253 885.405601,162.339025 C878.048425,155.682485 870.255726,155.94235 862.126952,155.616269 L482.699214,252.072692 Z" id="path-2"></path>
        <filter x="-50%" y="-50%" width="200%" height="200%" filterUnits="objectBoundingBox" id="filter-3">
            <feOffset dx="-1" dy="8" in="SourceAlpha" result="shadowOffsetOuter1"></feOffset>
            <feColorMatrix values="0 0 0 0 0   0 0 0 0 0   0 0 0 0 0  0 0 0 1 0" type="matrix" in="shadowOffsetOuter1"></feColorMatrix>
        </filter>
    </defs>
    <g id="Playground" stroke="none" stroke-width="1" fill="none" fill-rule="evenodd">
        <g id="Shape" fill-rule="nonzero" transform="translate(412.326271, 474.341485) rotate(-23.000000) translate(-412.326271, -474.341485) ">
            <use fill="black" fill-opacity="1" filter="url(#filter-3)" xlink:href="#path-2"></use>
            <use fill="url(#radialGradient-1)" fill-rule="evenodd" xlink:href="#path-2"></use>
        </g>
    </g>
</svg>