<svg width="32" height="32" xmlns="http://www.w3.org/2000/svg"><g transform="translate(1 1)" fill="none" fill-rule="evenodd"><circle stroke="#0A9FD3" fill="#F5F5F5" cx="15" cy="15" r="15"/><path d="M21.417 9.966a1.152 1.152 0 0 0-1.629-1.629l-4 4a1.151 1.151 0 0 1-1.628 0l-3.994-4a1.152 1.152 0 0 0-1.628 1.629l4 4a1.151 1.151 0 0 1 0 1.628l-4 3.994a1.152 1.152 0 0 0 1.628 1.629l4-4a1.151 1.151 0 0 1 1.629 0l4 4a1.152 1.152 0 0 0 1.628-1.629l-4-4a1.151 1.151 0 0 1 0-1.628l3.994-3.994z" fill="#0A9FD3" fill-rule="nonzero"/></g></svg>