<svg width="32" height="32" xmlns="http://www.w3.org/2000/svg"><g transform="translate(1 1)" fill="none" fill-rule="evenodd"><circle stroke="#0A9FD3" fill="#F5F5F5" cx="15" cy="15" r="15"/><path d="M15.239 21.49c-2.394 0-4.518-.812-6.376-2.018-1.816-1.177-3.37-2.722-4.682-4.24a.748.748 0 0 1 .004-.98C5.632 12.58 7.539 10.87 9.642 9.67 11.414 8.66 13.328 8 15.24 8c1.915 0 3.83.66 5.6 1.669 2.1 1.205 4.01 2.915 5.458 4.588a.747.747 0 0 1 0 .98c-1.312 1.513-2.866 3.063-4.678 4.235-1.858 1.206-3.981 2.017-6.38 2.017zm0-10.64a3.897 3.897 0 1 1 .005 7.793 3.897 3.897 0 0 1-.005-7.793zm-5.564 7.372c1.632 1.057 3.485 1.77 5.564 1.77s3.932-.713 5.564-1.77c1.484-.964 2.792-2.21 3.932-3.473-1.283-1.398-2.89-2.78-4.641-3.78-1.559-.89-3.223-1.468-4.855-1.468-1.628 0-3.292.578-4.85 1.467-1.751 1-3.358 2.383-4.642 3.78 1.136 1.264 2.448 2.51 3.928 3.474z" fill="#0A9FD3" fill-rule="nonzero"/></g></svg>