<svg width="20" height="20" viewBox="0 0 20 20" xmlns="http://www.w3.org/2000/svg"><title>expired-timer</title><g stroke-width="1.5" stroke="#FFF" fill="#FFF" fill-rule="nonzero"><path d="M9.637 1C4.875 1 1 4.875 1 9.637c0 4.763 3.875 8.638 8.637 8.638 4.763 0 8.638-3.875 8.638-8.638C18.275 4.875 14.4 1 9.637 1zm0 16.555c-4.365 0-7.917-3.551-7.917-7.918 0-4.365 3.551-7.917 7.917-7.917 4.367 0 7.918 3.552 7.918 7.917s-3.553 7.918-7.918 7.918z"/><path d="M9.502 9.854V6.251a.25.25 0 1 0-.502 0v3.707c0 .066.027.131.073.178l2.627 2.626a.249.249 0 0 0 .355 0 .251.251 0 0 0 0-.355L9.502 9.854z"/></g></svg>