<svg width="230" height="228" viewBox="0 0 230 228" xmlns="http://www.w3.org/2000/svg" xmlns:xlink="http://www.w3.org/1999/xlink"><title>Shape</title><defs><radialGradient cy="0%" fx="50%" fy="0%" r="233.931%" id="c"><stop stop-color="#FFF" offset="0%"/><stop stop-color="#FAFAFA" offset="9.215%"/><stop stop-color="#FAFAFA" offset="9.215%"/><stop stop-color="#FFF" offset="23.372%"/><stop stop-color="#31A217" offset="100%"/></radialGradient><path d="M221.55 195.56c-3.817-4.478-6.618-8.072-8.866-14.499-4.655-17.35.788-37.235.788-37.235l-.03.02a107.684 107.684 0 0 0 5.533-34.097C218.975 50.24 170.845 2 111.488 2 52.13 2.002 4 50.24 4 109.752c0 46.053 28.839 85.337 69.385 100.754l-.02.002s.253.103.715.274a106.622 106.622 0 0 0 16.502 4.663c21.967 4.966 64.302 10.6 123.243.7 14.645-2.517 14.923-12.133 7.725-20.584zm-90.717-61.481H90.864c-3.912 0-7.082-3.18-7.082-7.102s3.172-7.1 7.082-7.1h39.97c3.914 0 7.082 3.178 7.082 7.1 0 3.922-3.168 7.102-7.083 7.102zM147.964 106h-57.1c-3.912 0-7.082-3.178-7.082-7.1 0-3.92 3.172-7.099 7.082-7.099h57.1c3.914 0 7.082 3.18 7.082 7.1 0 3.921-3.17 7.1-7.082 7.1z" id="b"/><filter x="-50%" y="-50%" width="200%" height="200%" filterUnits="objectBoundingBox" id="a"><feOffset dy="2" in="SourceAlpha" result="shadowOffsetOuter1"/><feGaussianBlur stdDeviation="2" in="shadowOffsetOuter1" result="shadowBlurOuter1"/><feColorMatrix values="0 0 0 0 0 0 0 0 0 0 0 0 0 0 0 0 0 0 0.5 0" in="shadowBlurOuter1"/></filter></defs><g fill-rule="nonzero" fill="none"><use fill="#000" filter="url(#a)" xlink:href="#b"/><use fill="url(#c)" fill-rule="evenodd" xlink:href="#b"/></g></svg>