<svg width="234" height="234" viewBox="0 0 234 234" xmlns="http://www.w3.org/2000/svg" xmlns:xlink="http://www.w3.org/1999/xlink"><title>new-email</title><defs><radialGradient cy="54.945%" fx="50%" fy="54.945%" r="174.064%" id="f"><stop stop-color="#FFF" offset="0%"/><stop stop-color="#8FD37F" offset="100%"/></radialGradient><path id="e" d="M84.096 157.39L.332 89.68v129.836l20.243-15.008z"/><filter x="-50%" y="-50%" width="200%" height="200%" filterUnits="objectBoundingBox" id="d"><feMorphology radius="2" operator="dilate" in="SourceAlpha" result="shadowSpreadOuter1"/><feOffset dy="5" in="shadowSpreadOuter1" result="shadowOffsetOuter1"/><feGaussianBlur stdDeviation="2" in="shadowOffsetOuter1" result="shadowBlurOuter1"/><feComposite in="shadowBlurOuter1" in2="SourceAlpha" operator="out" result="shadowBlurOuter1"/><feColorMatrix values="0 0 0 0 0 0 0 0 0 0 0 0 0 0 0 0 0 0 0.5 0" in="shadowBlurOuter1"/></filter><path id="h" d="M203.461 204.508l20.243 15.008V89.68l-83.765 67.71z"/><filter x="-50%" y="-50%" width="200%" height="200%" filterUnits="objectBoundingBox" id="g"><feMorphology radius="2" operator="dilate" in="SourceAlpha" result="shadowSpreadOuter1"/><feOffset dy="5" in="shadowSpreadOuter1" result="shadowOffsetOuter1"/><feGaussianBlur stdDeviation="2" in="shadowOffsetOuter1" result="shadowBlurOuter1"/><feComposite in="shadowBlurOuter1" in2="SourceAlpha" operator="out" result="shadowBlurOuter1"/><feColorMatrix values="0 0 0 0 0 0 0 0 0 0 0 0 0 0 0 0 0 0 0.5 0" in="shadowBlurOuter1"/></filter><path d="M114.461 177.983c-1.396 1.047-3.49 1.047-4.537 0l-19.545-15.706L8.01 223.355h208.365l-82.369-61.078-19.545 15.706z" id="j"/><filter x="-50%" y="-50%" width="200%" height="200%" filterUnits="objectBoundingBox" id="i"><feMorphology radius="2" operator="dilate" in="SourceAlpha" result="shadowSpreadOuter1"/><feOffset dy="5" in="shadowSpreadOuter1" result="shadowOffsetOuter1"/><feGaussianBlur stdDeviation="2" in="shadowOffsetOuter1" result="shadowBlurOuter1"/><feComposite in="shadowBlurOuter1" in2="SourceAlpha" operator="out" result="shadowBlurOuter1"/><feColorMatrix values="0 0 0 0 0 0 0 0 0 0 0 0 0 0 0 0 0 0 0.5 0" in="shadowBlurOuter1"/></filter><rect id="a" x="48" y="83" width="130" height="10" rx="4"/><mask id="k" x="0" y="0" width="130" height="10" fill="#fff"><use xlink:href="#a"/></mask><ellipse id="m" cx="113" cy="148.583" rx="49.12" ry="49.12"/><filter x="-50%" y="-50%" width="200%" height="200%" filterUnits="objectBoundingBox" id="l"><feMorphology radius="2" operator="dilate" in="SourceAlpha" result="shadowSpreadOuter1"/><feOffset dy="5" in="shadowSpreadOuter1" result="shadowOffsetOuter1"/><feGaussianBlur stdDeviation="2" in="shadowOffsetOuter1" result="shadowBlurOuter1"/><feComposite in="shadowBlurOuter1" in2="SourceAlpha" operator="out" result="shadowBlurOuter1"/><feColorMatrix values="0 0 0 0 0 0 0 0 0 0 0 0 0 0 0 0 0 0 0.5 0" in="shadowBlurOuter1"/></filter><rect id="b" x="48" y="61" width="130" height="10" rx="4"/><mask id="n" x="0" y="0" width="130" height="10" fill="#fff"><use xlink:href="#b"/></mask><rect id="c" x="48" y="38" width="67" height="10" rx="4"/><mask id="o" x="0" y="0" width="67" height="10" fill="#fff"><use xlink:href="#c"/></mask></defs><g transform="translate(4 -1)" fill="none" fill-rule="evenodd"><g fill-rule="nonzero"><path fill="#FFF" d="M170.24 124.867H55.76l22.687 18.498h69.106z"/><path fill="#FFF" d="M179.947 143.092l21.988-22.625V21.982H24.982v98.485l21.988 22.625z"/><path fill="#CCC" opacity=".7" d="M208.98 72.863v20.94l13.263-10.819zM113 1.663L95.2 14.925h35.6z"/><path fill="#FFF" d="M113 171.286l19.545-15.706 5.584-4.537H87.871l5.584 4.537z"/><g opacity=".95" transform="translate(.982 .982)"><use fill="#000" filter="url(#d)" xlink:href="#e"/><use stroke="#31A217" stroke-width="4" fill="url(#f)" fill-rule="evenodd" xlink:href="#e"/></g><g opacity=".95" transform="translate(.982 .982)"><use fill="#000" filter="url(#g)" xlink:href="#h"/><use stroke="#31A217" stroke-width="4" fill="url(#f)" fill-rule="evenodd" xlink:href="#h"/></g><path fill="#CCC" opacity=".7" d="M17.02 72.863L3.757 82.984l13.263 10.82z"/><g opacity=".95" transform="translate(.982 .982)"><use fill="#000" filter="url(#i)" xlink:href="#j"/><use stroke="#31A217" stroke-width="4" fill="url(#f)" fill-rule="evenodd" xlink:href="#j"/></g></g><use stroke="#979797" mask="url(#k)" stroke-width="2" fill="#31A217" xlink:href="#a"/><use fill="#000" filter="url(#l)" xlink:href="#m"/><use stroke="#31A217" stroke-width="4" fill="url(#f)" xlink:href="#m"/><path d="M131.808 138.857h-1.827l-.008-8.433c-.007-9.186-8.08-16.66-18.004-16.653-9.923.007-17.996 7.48-17.989 16.667l.015 8.433h-.651c-3.412.007-6.18 2.569-6.172 5.727v25.107c0 3.158 2.775 5.72 6.186 5.72l38.465-.02c3.412 0 6.18-2.563 6.172-5.721V144.57c0-3.158-2.775-5.713-6.187-5.713zm-30.5.412l-.015-8.433c0-5.802 5.091-10.522 11.359-10.529 6.267 0 11.366 4.72 11.366 10.515l.015 8.433-22.725.014z" fill="#31A217" fill-rule="nonzero"/><use stroke="#979797" mask="url(#n)" stroke-width="2" fill="#31A217" xlink:href="#b"/><use stroke="#979797" mask="url(#o)" stroke-width="2" fill="#31A217" xlink:href="#c"/></g></svg>