<?xml version="1.0" encoding="UTF-8"?>
<svg width="22px" height="22px" viewBox="0 0 22 22" version="1.1" xmlns="http://www.w3.org/2000/svg" xmlns:xlink="http://www.w3.org/1999/xlink">
    <!-- Generator: Sketch 44.1 (41455) - http://www.bohemiancoding.com/sketch -->
    <title>plus-sign</title>
    <desc>Created with Sketch.</desc>
    <defs></defs>
    <g id="Extension" stroke="none" stroke-width="1" fill="none" fill-rule="evenodd">
        <g id="Group-28" transform="translate(0.500000, 0.000000)" fill-rule="nonzero" fill="#0A9FD3">
            <g id="plus-sign">
                <path d="M10.5,0.35483871 C4.70932,0.35483871 0,5.12920065 0,11.0000071 C0,16.8707426 4.70932,21.6451684 10.5,21.6451684 C16.29068,21.6451684 21,16.8707426 21,11.0000071 C21,5.12920065 16.29068,0.35483871 10.5,0.35483871 L10.5,0.35483871 Z M10.5,1.77419355 C15.53405,1.77419355 19.6,5.89627677 19.6,11.0000071 C19.6,16.1036523 15.53405,20.2258135 10.5,20.2258135 C5.46595,20.2258135 1.4,16.1036523 1.4,11.0000071 C1.4,5.89627677 5.46595,1.77419355 10.5,1.77419355 L10.5,1.77419355 Z M10.5,3.90322581 C10.11339,3.90322581 9.8,4.22094839 9.8,4.61290323 L9.8,10.2903297 L4.2,10.2903297 C3.81339,10.2903297 3.5,10.6080523 3.5,11.0000071 C3.5,11.3919619 3.81339,11.7096845 4.2,11.7096845 L9.8,11.7096845 L9.8,17.3871039 C9.8,17.7790587 10.11339,18.0967813 10.5,18.0967813 C10.88661,18.0967813 11.2,17.7790587 11.2,17.3871039 L11.2,11.7096845 L16.8,11.7096845 C17.18661,11.7096845 17.5,11.3919619 17.5,11.0000071 C17.5,10.6080523 17.18661,10.2903297 16.8,10.2903297 L11.2,10.2903297 L11.2,4.61290323 C11.2,4.22094839 10.88661,3.90322581 10.5,3.90322581 Z" id="Shape"></path>
            </g>
        </g>
    </g>
</svg>