<svg width="156" height="99" viewBox="0 0 156 99" xmlns="http://www.w3.org/2000/svg"><title>Group 4</title><g stroke="#979797" fill="none" fill-rule="evenodd"><g opacity=".5" transform="rotate(-28 72.608 37.49)" stroke-width="2"><path d="M62.563 23.505c.753 1.692 0 3.385-1.881 4.137L57.86 28.77c.188 2.256.188 4.325-.188 6.581l2.822 1.317c1.693.752 2.446 2.632 1.693 4.137l-3.198 7.333c-.565 1.128-1.693 1.88-2.822 1.88-.565 0-.94 0-1.317-.188l-2.822-1.316c-1.317 1.692-2.822 3.197-4.703 4.513l1.317 2.633c.752 1.504 0 3.384-1.694 3.948l-7.525 3.01c-.376.187-.752.187-1.129.187-1.128 0-2.257-.752-2.822-2.068l-1.128-2.82c-.941.187-1.882.187-2.822.187-1.317 0-2.446 0-3.763-.188l-1.317 2.82c-.564 1.129-1.693 1.881-2.822 1.881-.564 0-.94 0-1.317-.188l-7.337-3.197c-1.693-.752-2.446-2.632-1.693-4.137l1.317-2.82c-1.693-1.316-3.199-2.82-4.515-4.701l-2.822 1.128c-.377.188-.753.188-1.13.188-1.128 0-2.257-.752-2.821-2.068L.292 39.3c-.753-1.504 0-3.385 1.693-3.949l2.822-1.128c-.188-2.256-.188-4.325.188-6.581l-2.822-1.317C.48 25.573-.273 23.693.48 22.19l3.198-7.334c.564-1.128 1.693-1.88 2.822-1.88.564 0 .94 0 1.317.188l2.822 1.316c1.317-1.692 2.822-3.197 4.703-4.513l-1.129-2.82c-.752-1.505 0-3.385 1.694-3.95L23.432.189C23.808 0 24.184 0 24.56 0c1.129 0 2.257.752 2.822 2.068L28.51 4.89c.941-.188 1.882-.188 2.822-.188 1.317 0 2.446 0 3.763.188l1.317-2.82C36.977.94 38.106.187 39.235.187c.376 0 .753.188 1.129.188L47.7 3.573c1.693.752 2.446 2.632 1.693 4.137l-1.129 3.008c1.694 1.317 3.199 2.82 4.515 4.701l2.822-1.316c.377-.188.753-.188 1.13-.188 1.128 0 2.257.752 2.821 2.068l3.01 7.522z" fill="#F5F5F5" fill-rule="nonzero"/><circle fill="#FFF" cx="32.5" cy="30.5" r="13.5"/></g><g transform="translate(63 2)"><path d="M90.051 29.531c1.223 2.131.611 4.871-1.529 6.546l-5.502 3.805c.458 2.436.764 5.024.764 7.611 0 2.588-.306 5.176-.764 7.611l5.655 3.654c1.987 1.37 2.599 4.262 1.376 6.393L83.325 76.72c-.917 1.522-2.598 2.436-4.28 2.436a4.723 4.723 0 0 1-1.987-.457l-6.114-2.74c-3.822 3.349-8.407 5.937-13.299 7.611l-.611 6.698c-.306 2.435-2.293 4.414-4.892 4.414H38.691c-2.599 0-4.739-1.826-4.891-4.414l-.612-6.698c-4.891-1.674-9.477-4.262-13.298-7.611l-6.115 2.892a4.246 4.246 0 0 1-1.987.457c-1.681 0-3.363-.914-4.28-2.436L.782 65.303c-1.375-2.13-.764-4.87 1.376-6.393l5.35-3.958c-.458-2.435-.764-5.023-.764-7.61 0-2.589.306-5.176.764-7.612l-5.503-3.806C.018 34.554-.593 31.662.63 29.531l6.725-11.569c.917-1.522 2.599-2.435 4.28-2.435.765 0 1.376 0 2.14.304l6.115 2.892c3.821-3.349 8.407-5.936 13.298-7.61l.612-6.699C34.105 1.98 36.092 0 38.69 0h13.451c2.599 0 4.739 1.827 4.892 4.414l.611 6.698c4.892 1.675 9.477 4.262 13.299 7.611l6.114-2.74a4.246 4.246 0 0 1 1.987-.456c1.682 0 3.363.913 4.28 2.435l6.726 11.57z" stroke-width="3" fill="#F5F5F5" fill-rule="nonzero"/><ellipse stroke-width="4" fill="#FFF" cx="45" cy="47" rx="19" ry="19"/></g></g></svg>