<svg width="50" height="53" viewBox="0 0 50 53" xmlns="http://www.w3.org/2000/svg" xmlns:xlink="http://www.w3.org/1999/xlink"><title>Group 10</title><defs><filter x="-50%" y="-50%" width="200%" height="200%" filterUnits="objectBoundingBox" id="a"><feOffset dy="1" in="SourceAlpha" result="shadowOffsetOuter1"/><feGaussianBlur stdDeviation=".5" in="shadowOffsetOuter1" result="shadowBlurOuter1"/><feColorMatrix values="0 0 0 0 0 0 0 0 0 0 0 0 0 0 0 0 0 0 0.2 0" in="shadowBlurOuter1" result="shadowMatrixOuter1"/><feMerge><feMergeNode in="shadowMatrixOuter1"/><feMergeNode in="SourceGraphic"/></feMerge></filter><linearGradient x1="84.001%" y1="-21.432%" x2="145.01%" y2="125.545%" id="b"><stop stop-color="#ECECEC" offset="0%"/><stop stop-color="#CCC" offset="100%"/></linearGradient><filter x="-50%" y="-50%" width="200%" height="200%" filterUnits="objectBoundingBox" id="c"><feOffset dy="1" in="SourceAlpha" result="shadowOffsetOuter1"/><feGaussianBlur stdDeviation=".5" in="shadowOffsetOuter1" result="shadowBlurOuter1"/><feColorMatrix values="0 0 0 0 0 0 0 0 0 0 0 0 0 0 0 0 0 0 0.2 0" in="shadowBlurOuter1" result="shadowMatrixOuter1"/><feMerge><feMergeNode in="shadowMatrixOuter1"/><feMergeNode in="SourceGraphic"/></feMerge></filter><linearGradient x1="117.873%" y1="-116.047%" x2="145.01%" y2="125.545%" id="d"><stop stop-color="#F5F2F2" offset="0%"/><stop stop-color="#F1F1F1" offset="28.084%"/><stop stop-color="#F1F1F1" offset="55.962%"/><stop stop-color="#CCC" offset="100%"/></linearGradient><ellipse id="f" cx="3.811" cy="3.865" rx="3.811" ry="3.865"/><filter x="-50%" y="-50%" width="200%" height="200%" filterUnits="objectBoundingBox" id="e"><feMorphology radius=".25" operator="dilate" in="SourceAlpha" result="shadowSpreadOuter1"/><feOffset dy=".5" in="shadowSpreadOuter1" result="shadowOffsetOuter1"/><feComposite in="shadowOffsetOuter1" in2="SourceAlpha" operator="out" result="shadowOffsetOuter1"/><feColorMatrix values="0 0 0 0 0 0 0 0 0 0 0 0 0 0 0 0 0 0 0.07 0" in="shadowOffsetOuter1"/></filter></defs><g fill="none" fill-rule="evenodd"><g filter="url(#a)" transform="rotate(17 -37.99 33.6)" stroke="#727072" stroke-width=".5"><path d="M.519 21.725l2.028-1.411.307-.246-.061-.368c-.185-.86-.246-1.78-.246-2.7 0-.921.061-1.842.246-2.7l.061-.369-.307-.307-2.028-1.411c-.492-.369-.676-1.044-.369-1.596l2.458-4.296c.185-.368.615-.614 1.045-.614.184 0 .369.062.492.123l2.273 1.043.369.185.307-.246a12.76 12.76 0 0 1 4.67-2.7l.37-.123.06-.43.246-2.454C12.502.49 12.994 0 13.608 0h4.916c.615 0 1.106.491 1.168 1.105l.246 2.454.061.43.369.123a12.76 12.76 0 0 1 4.67 2.7l.307.246.369-.185 2.274-1.043c.184-.061.307-.123.491-.123.43 0 .8.246 1.045.614l2.458 4.296c.307.552.184 1.227-.369 1.596l-2.028 1.411-.307.246.062.368c.184.86.245 1.78.245 2.7 0 .92-.061 1.841-.245 2.7l-.062.369.307.245 2.028 1.412c.492.368.676 1.043.369 1.595l-2.458 4.296c-.184.369-.615.614-1.045.614-.184 0-.368-.061-.491-.123l-2.274-1.043-.369-.184-.307.245a12.76 12.76 0 0 1-4.67 2.7l-.369.123-.061.43-.246 2.455c-.062.613-.553 1.104-1.168 1.104h-4.916c-.614 0-1.106-.49-1.168-1.104l-.245-2.455-.062-.43-.368-.122a12.76 12.76 0 0 1-4.67-2.7l-.308-.246-.369.184-2.273 1.043c-.185.062-.308.123-.492.123-.43 0-.799-.245-1.045-.614L.15 23.26a1.252 1.252 0 0 1 .369-1.534z" fill="url(#b)"/><ellipse cx="7.031" cy="6.994" rx="7.031" ry="6.994" transform="translate(9.04 9.991)" fill="#F9F9F9"/></g><g filter="url(#c)" transform="rotate(-25 23.84 -49.574)"><path d="M.87 14.173l1.257-.892.19-.155-.038-.233a8.363 8.363 0 0 1-.152-1.706c0-.581.038-1.163.152-1.706l.038-.232-.19-.194L.87 8.163a.796.796 0 0 1-.228-1.008L2.165 4.44a.735.735 0 0 1 .647-.388c.114 0 .229.039.305.077l1.409.66.228.116.19-.155a7.872 7.872 0 0 1 2.894-1.706l.229-.078.038-.271.152-1.551c.038-.388.343-.698.724-.698h3.046c.38 0 .686.31.724.698l.152 1.55.038.272.228.078a7.872 7.872 0 0 1 2.894 1.706l.19.155.23-.116 1.408-.66c.114-.038.19-.077.305-.077.266 0 .495.155.647.388l1.523 2.714c.19.349.114.775-.228 1.008l-1.257.892-.19.155.038.232c.114.543.152 1.125.152 1.706 0 .582-.038 1.164-.152 1.707l-.038.232.19.155 1.257.892c.304.233.419.66.228 1.008l-1.523 2.714a.735.735 0 0 1-.647.388.707.707 0 0 1-.305-.078l-1.409-.659-.228-.116-.19.155a7.872 7.872 0 0 1-2.895 1.706l-.228.078-.038.271-.152 1.551c-.038.388-.343.698-.724.698H8.981c-.38 0-.686-.31-.724-.698l-.152-1.55-.038-.272-.229-.078a7.872 7.872 0 0 1-2.893-1.706l-.19-.155-.23.116-1.408.66c-.114.038-.19.077-.305.077-.266 0-.495-.155-.647-.388L.642 15.142a.801.801 0 0 1 .228-.97z" stroke="#727072" stroke-width=".5" fill="url(#d)"/><g transform="translate(6.696 7.31)"><use fill="#000" filter="url(#e)" xlink:href="#f"/><use stroke="#727072" stroke-width=".5" fill="#F9F9F9" xlink:href="#f"/></g></g></g></svg>