<svg width="791" height="937" viewBox="0 0 791 937" xmlns="http://www.w3.org/2000/svg" xmlns:xlink="http://www.w3.org/1999/xlink"><title>Shape</title><defs><radialGradient cx="86.642%" cy="25.314%" fx="86.642%" fy="25.314%" r="107.476%" id="c"><stop stop-color="#31A217" offset="0%"/><stop stop-color="#337A23" offset="100%"/></radialGradient><path d="M482.7 252.073c-10.915 2.804-19.1 13.73-18.65 24.893.451 11.163 9.491 21.406 20.596 23.337l145.25 25.466C472.343 466.072 198.003 600.92-56.878 547.482c-8.006.947-7.658-5.81-11.634 6.514s54.95 241.562 68.05 239.05c363.198-69.622 518.485-214.22 718.365-382.004l19.86 138.902c1.51 11.142 11.598 20.541 22.914 21.35 11.315.799 22.659-7.064 25.763-17.878L892.5 186.484c2.545-8.557-.817-17.85-7.095-24.145-7.358-6.657-15.15-6.397-23.279-6.723l-379.428 96.457z" id="b"/><filter x="-50%" y="-50%" width="200%" height="200%" filterUnits="objectBoundingBox" id="a"><feOffset dx="-1" dy="8" in="SourceAlpha" result="shadowOffsetOuter1"/><feColorMatrix values="0 0 0 0 0 0 0 0 0 0 0 0 0 0 0 0 0 0 1 0" in="shadowOffsetOuter1"/></filter></defs><g fill-rule="nonzero" transform="rotate(-23 412.326 474.341)" fill="none"><use fill="#000" filter="url(#a)" xlink:href="#b"/><use fill="url(#c)" fill-rule="evenodd" xlink:href="#b"/></g></svg>