<?xml version="1.0" encoding="UTF-8"?>
<svg width="216px" height="422px" viewBox="0 0 216 422" version="1.1" xmlns="http://www.w3.org/2000/svg" xmlns:xlink="http://www.w3.org/1999/xlink">
    <!-- Generator: Sketch 42 (36781) - http://www.bohemiancoding.com/sketch -->
    <title>Shape</title>
    <desc>Created with Sketch.</desc>
    <defs></defs>
    <g id="Icons" stroke="none" stroke-width="1" fill="none" fill-rule="evenodd">
        <path d="M215.6,61.5817986 L215.6,4.9817986 C215.6,2.9817986 214.4,1.1817986 212.5,0.381798597 C210.6,-0.418201403 208.5,0.0817985971 207.1,1.4817986 L1.5,207.081799 C0.5,208.081799 0,209.381799 0,210.581799 C0,211.781799 0.5,213.181799 1.5,214.081799 L207,419.581799 C208.3,420.981799 210.5,421.481799 212.5,420.681799 C214.4,419.881799 215.6,418.081799 215.6,416.081799 L215.6,359.481799 C215.6,358.181799 215.1,356.881799 214.1,355.981799 L68.6,210.481799 L214.1,65.0817986 C215,64.1817986 215.6,62.8817986 215.6,61.5817986 Z" id="Shape" fill="#000000" fill-rule="nonzero"></path>
    </g>
</svg>