<svg width="157" height="99" viewBox="0 0 157 99" xmlns="http://www.w3.org/2000/svg"><title>Group 4</title><g stroke="#979797" fill="none" fill-rule="evenodd"><g transform="rotate(-28 71.102 34.984)" stroke-width="3"><path d="M62.563 23.505c.753 1.692 0 3.385-1.881 4.137L57.86 28.77c.188 2.256.188 4.325-.188 6.581l2.822 1.317c1.693.752 2.446 2.632 1.693 4.137l-3.198 7.333c-.565 1.128-1.693 1.88-2.822 1.88-.565 0-.94 0-1.317-.188l-2.822-1.316c-1.317 1.692-2.822 3.197-4.703 4.513l1.317 2.633c.752 1.504 0 3.384-1.694 3.948l-7.525 3.01c-.376.187-.752.187-1.129.187-1.128 0-2.257-.752-2.822-2.068l-1.128-2.82c-.941.187-1.882.187-2.822.187-1.317 0-2.446 0-3.763-.188l-1.317 2.82c-.564 1.129-1.693 1.881-2.822 1.881-.564 0-.94 0-1.317-.188l-7.337-3.197c-1.693-.752-2.446-2.632-1.693-4.137l1.317-2.82c-1.693-1.316-3.199-2.82-4.515-4.701l-2.822 1.128c-.377.188-.753.188-1.13.188-1.128 0-2.257-.752-2.821-2.068L.292 39.3c-.753-1.504 0-3.385 1.693-3.949l2.822-1.128c-.188-2.256-.188-4.325.188-6.581l-2.822-1.317C.48 25.573-.273 23.693.48 22.19l3.198-7.334c.564-1.128 1.693-1.88 2.822-1.88.564 0 .94 0 1.317.188l2.822 1.316c1.317-1.692 2.822-3.197 4.703-4.513l-1.129-2.82c-.752-1.505 0-3.385 1.694-3.95L23.432.189C23.808 0 24.184 0 24.56 0c1.129 0 2.257.752 2.822 2.068L28.51 4.89c.941-.188 1.882-.188 2.822-.188 1.317 0 2.446 0 3.763.188l1.317-2.82C36.977.94 38.106.187 39.235.187c.376 0 .753.188 1.129.188L47.7 3.573c1.693.752 2.446 2.632 1.693 4.137l-1.129 3.008c1.694 1.317 3.199 2.82 4.515 4.701l2.822-1.316c.377-.188.753-.188 1.13-.188 1.128 0 2.257.752 2.821 2.068l3.01 7.522z" fill="#F5F5F5" fill-rule="nonzero"/><circle fill="#FFF" cx="32.5" cy="30.5" r="13.5"/></g><g transform="translate(62)"><path d="M91.402 29.982c1.297 2.087.781 4.846-1.299 6.594l-5.367 3.996c.544 2.418.94 4.993 1.03 7.58.09 2.586-.125 5.183-.498 7.633l5.78 3.453c2.033 1.3 2.745 4.17 1.597 6.342l-6.318 11.796c-.863 1.554-2.512 2.525-4.192 2.584a4.723 4.723 0 0 1-2.002-.387l-6.206-2.525c-3.702 3.48-8.195 6.226-13.025 8.07l-.377 6.716c-.22 2.444-2.138 4.491-4.735 4.582l-13.443.47c-2.597.09-4.8-1.66-5.042-4.242l-.845-6.672c-4.947-1.503-9.62-3.929-13.556-7.142l-6.01 3.104c-.6.325-1.206.499-1.97.525-1.68.059-3.392-.795-4.362-2.284L3.436 68.847c-1.449-2.081-.933-4.841 1.152-6.437l5.209-4.142c-.543-2.418-.94-4.994-1.03-7.58-.09-2.586.125-5.183.499-7.633l-5.633-3.611c-2.033-1.3-2.745-4.17-1.598-6.342l6.318-11.796c.864-1.554 2.512-2.525 4.193-2.584.763-.026 1.374-.048 2.149.23l6.211 2.677c3.703-3.48 8.195-6.226 13.025-8.07l.377-6.716c.221-2.444 2.138-4.491 4.735-4.582l13.443-.47c2.597-.09 4.8 1.66 5.043 4.241l.844 6.673c4.947 1.503 9.62 3.929 13.557 7.142l6.014-2.952c.6-.325 1.207-.499 1.97-.525 1.68-.059 3.393.795 4.363 2.284l7.125 11.328z" stroke-width="3" fill="#F5F5F5" fill-rule="nonzero"/><ellipse stroke-width="4" fill="#FFF" cx="47" cy="48" rx="19" ry="19"/></g></g></svg>