<svg width="217" height="227" viewBox="0 0 217 227" xmlns="http://www.w3.org/2000/svg" xmlns:xlink="http://www.w3.org/1999/xlink"><title>contacts-icon</title><defs><radialGradient cy="0%" fx="50%" fy="0%" r="233.931%" id="c"><stop stop-color="#FFF" offset="0%"/><stop stop-color="#FAFAFA" offset="9.215%"/><stop stop-color="#FAFAFA" offset="9.215%"/><stop stop-color="#FFF" offset="23.372%"/><stop stop-color="#31A217" offset="100%"/></radialGradient><path d="M171.497 2.039H18.467C10.555 2.039 4 8.61 4 16.543V206.23c0 7.932 6.555 14.505 14.467 14.505h153.03c7.911 0 14.467-6.573 14.467-14.505V16.543c0-7.932-6.556-14.504-14.467-14.504zM150.7 164.53c0 2.72-2.26 4.986-4.973 4.986H44.461c-2.712 0-4.972-2.267-4.972-4.986v-10.652c0-3.399 1.582-6.572 4.068-8.611 14.24-11.785 29.612-19.49 32.55-21.077.452-.226.452-.453.452-.906v-10.878c-1.582-2.947-2.712-5.893-3.164-8.612-1.13 0-2.713-1.813-4.521-7.932-2.26-7.706-.226-9.292 1.808-9.292-.226-.68-.452-1.36-.452-2.04-.678-3.852-.904-7.478 0-10.878 1.13-4.532 3.617-8.385 6.33-11.331 1.808-1.813 3.842-3.626 5.876-4.986 1.809-1.133 3.617-2.266 5.651-2.946 1.583-.454 3.391-.907 5.2-.907 5.65-.453 9.945.907 13.11 2.72 4.52 2.493 6.329 5.892 6.329 5.892s10.624.68 7.007 22.21c-.226.68-.226 1.36-.452 2.04 2.035 0 4.069 1.586 1.809 9.291-1.809 6.119-3.391 7.705-4.521 7.932-.452 2.72-1.583 5.892-3.165 8.612v10.878c0 .453.226.68.678.907 3.165 1.586 18.31 9.291 32.55 21.076a11.218 11.218 0 0 1 4.069 8.612v10.878zM213 44.645v15.184c0 7.932-6.555 14.504-14.467 14.504h-6.555V30.141h6.555A14.44 14.44 0 0 1 213 44.645zm0 121.472v15.184c0 7.932-6.555 14.505-14.467 14.505h-6.555v-44.193h6.555c7.912 0 14.467 6.572 14.467 14.504zm0-60.736v15.184c0 7.932-6.555 14.504-14.467 14.504h-6.555V90.877h6.555c7.912 0 14.467 6.572 14.467 14.504z" id="b"/><filter x="-50%" y="-50%" width="200%" height="200%" filterUnits="objectBoundingBox" id="a"><feOffset dy="2" in="SourceAlpha" result="shadowOffsetOuter1"/><feGaussianBlur stdDeviation="2" in="shadowOffsetOuter1" result="shadowBlurOuter1"/><feColorMatrix values="0 0 0 0 0 0 0 0 0 0 0 0 0 0 0 0 0 0 0.5 0" in="shadowBlurOuter1"/></filter></defs><g fill-rule="nonzero" fill="none"><use fill="#000" filter="url(#a)" xlink:href="#b"/><use fill="url(#c)" fill-rule="evenodd" xlink:href="#b"/></g></svg>