<?xml version="1.0" encoding="UTF-8"?>
<svg width="20px" height="20px" viewBox="0 0 20 20" version="1.1" xmlns="http://www.w3.org/2000/svg" xmlns:xlink="http://www.w3.org/1999/xlink">
    <!-- Generator: Sketch 42 (36781) - http://www.bohemiancoding.com/sketch -->
    <title>expired-timer</title>
    <desc>Created with Sketch.</desc>
    <defs></defs>
    <g id="Page-1" stroke="none" stroke-width="1" fill="none" fill-rule="evenodd">
        <g id="expired-timer" transform="translate(1.000000, 1.000000)" stroke-width="1.5" stroke="#FFFFFF" fill="#FFFFFF" fill-rule="nonzero">
            <g id="Page-1">
                <g id="expired-timer">
                    <path d="M8.63742857,0 C3.87514286,0 0,3.87514286 0,8.63742857 C0,13.3997143 3.87514286,17.2748571 8.63742857,17.2748571 C13.3997143,17.2748571 17.2748571,13.3997143 17.2748571,8.63742857 C17.2748571,3.87514286 13.3997143,0 8.63742857,0 Z M8.63742857,16.5548571 C4.27242857,16.5548571 0.72,13.0037143 0.72,8.63742857 C0.72,4.27242857 4.27114286,0.72 8.63742857,0.72 C13.0037143,0.72 16.5548571,4.27242857 16.5548571,8.63742857 C16.5548571,13.0024286 13.0024286,16.5548571 8.63742857,16.5548571 Z" id="Shape"></path>
                    <path d="M8.50182339,8.85418286 L8.50182339,5.2509117 C8.50182339,5.11201415 8.38980924,5 8.2509117,5 C8.11201415,5 8,5.11201415 8,5.2509117 L8,8.95813199 C8,9.02444437 8.0268834,9.08896452 8.07348128,9.1355624 L10.6999891,11.7620702 C10.7492753,11.8113564 10.8128993,11.8355515 10.8774195,11.8355515 C10.9419396,11.8355515 11.0055637,11.8113564 11.0548499,11.7620702 C11.1525262,11.6643938 11.1525262,11.5048857 11.0548499,11.4072094 L8.50182339,8.85418286 Z" id="Shape"></path>
                </g>
            </g>
        </g>
    </g>
</svg>