<svg width="83" height="96" viewBox="0 0 83 96" xmlns="http://www.w3.org/2000/svg"><title>stopwatch</title><defs><linearGradient x1="50%" y1="22.832%" x2="50%" y2="100%" id="a"><stop stop-color="#3AA621" offset="0%"/><stop stop-color="#31931A" offset="100%"/></linearGradient></defs><path d="M41.6 100.3c2.7 0 4.9-2.2 4.9-4.9 0-.6-.1-1.2-.3-1.7l18-19.7c.3-.4.3-.9 0-1.2-.3-.3-.9-.4-1.2 0L43.2 90.9c-.5-.1-.9-.3-1.4-.3-2.9-.1-5.1 2.1-5.1 4.8 0 2.7 2.2 4.9 4.9 4.9zm34.6-4.9c0 19.1-15.5 34.6-34.6 34.6S7 114.5 7 95.4s15.5-34.6 34.6-34.6 34.6 15.5 34.6 34.6zm-5.8-33.8c1.4-2 .9-4.9-1.1-6.3-2-1.4-4.9-.9-6.3 1.1l-2.2 3.1c-4.5-2.4-9.5-4-14.7-4.5v-6h5.1c2.5 0 4.5-2 4.5-4.5s-2-4.5-4.5-4.5H31.9c-2.5 0-4.5 2-4.5 4.5s2 4.5 4.5 4.5H37v6c-5.2.6-10.1 2.1-14.7 4.5l-2.2-3.1c-1.4-2-4.2-2.5-6.3-1.1-2.1 1.4-2.5 4.2-1.1 6.3l2.2 3.1c-.7.6-1.4 1.3-2.1 1.9C5.1 74.3.9 84.5.9 95.3s4.2 21 11.9 28.7c7.7 7.7 17.9 11.9 28.7 11.9s21-4.2 28.7-11.9c7.7-7.7 11.9-17.9 11.9-28.7s-4.2-21-11.9-28.7c-.7-.7-1.4-1.3-2.1-1.9l2.3-3.1z" transform="translate(0 -40)" fill-rule="nonzero" fill="url(#a)"/></svg>