<svg xmlns="http://www.w3.org/2000/svg" xmlns:xlink="http://www.w3.org/1999/xlink" version="1.1" x="0px" y="0px" viewBox="0 0 100 100" fill-color="#000000" enable-background="new 0 0 100 100" xml:space="preserve"><g><path d="M17.807,31.24h64.58l-4.938,60.587c-0.248,3.101-2.835,5.487-5.943,5.487H28.692c-3.107,0-5.693-2.387-5.947-5.487   L17.807,31.24z"></path></g><path d="M35.083,15.477c0-6.651,5.392-12.036,12.044-12.036h5.947c6.649,0,12.037,5.385,12.037,12.036v2.287h18.314  c3.019,0,5.476,2.45,5.476,5.468v2.403H11.299v-2.403c0-3.018,2.451-5.468,5.47-5.468h18.314V15.477z M41.656,17.764h16.887v-2.287  c0-3.018-2.451-5.469-5.469-5.469h-5.947c-3.024,0-5.471,2.451-5.471,5.469V17.764z"></path></svg>
