<svg width="348" height="348" viewBox="0 0 348 348" xmlns="http://www.w3.org/2000/svg" xmlns:xlink="http://www.w3.org/1999/xlink"><title>backup-header</title><defs><radialGradient cy="-5.703%" fx="50%" fy="-5.703%" r="244.791%" id="c"><stop stop-color="#FFF" offset="0%"/><stop stop-color="#BEDEB6" offset="44.264%"/><stop stop-color="#BAF3AD" offset="100%"/></radialGradient><path d="M92.038 130.485h-.37c-21.278-.25-39.502-15.667-43.332-36.656-1.496-8.188-.584-16.315 2.189-23.667-.994.36-1.992.716-2.944 1.172-.222.106-.434.231-.652.341a33.23 33.23 0 0 0-3.327 1.941c-.235.157-.48.3-.713.462a32.91 32.91 0 0 0-3.356 2.7c-.227.214-.442.435-.664.649a33.32 33.32 0 0 0-2.697 2.948c-.125.152-.26.292-.38.447-.904 1.163-1.716 2.416-2.467 3.715-.176.303-.339.61-.501.915-.728 1.36-1.398 2.76-1.942 4.243-6.24 17.074 2.51 35.984 19.552 42.246 2.532.928 5.104 1.488 7.672 1.772l9.596 20.727 12.386 4.55-4.539 12.406.087.189 12.384 4.545-4.537 12.41.086.185 12.387 4.548-4.112 11.257 21.44 7.875 8.28-22.652-11.29-24.433-16.167-34.9c-.692.031-1.381.065-2.069.065z" id="b"/><filter x="-50%" y="-50%" width="200%" height="200%" filterUnits="objectBoundingBox" id="a"><feOffset dy="4" in="SourceAlpha" result="shadowOffsetOuter1"/><feGaussianBlur stdDeviation="2.5" in="shadowOffsetOuter1" result="shadowBlurOuter1"/><feColorMatrix values="0 0 0 0 0 0 0 0 0 0 0 0 0 0 0 0 0 0 0.5 0" in="shadowBlurOuter1"/></filter><path d="M202.26 142.044l-72.542-47.488c.177-2.933-.206-12.467-.754-15.489a36.988 36.988 0 0 0-.833-3.539c-.108-.377-.24-.742-.364-1.11a34.62 34.62 0 0 0-.778-2.274c-.168-.428-.36-.835-.536-1.249-.291-.665-.581-1.328-.911-1.968-.216-.424-.44-.835-.666-1.246a34.661 34.661 0 0 0-1.836-2.986 32.45 32.45 0 0 0-1.208-1.668c-.283-.371-.569-.742-.857-1.098a41.479 41.479 0 0 0-1.408-1.58c-.299-.323-.586-.65-.897-.959a33.204 33.204 0 0 0-1.696-1.576c-.273-.242-.527-.5-.813-.732a35.753 35.753 0 0 0-2.694-2.066 43.502 43.502 0 0 0-2.885-1.797c-.326-.184-.667-.35-1.003-.525a36.587 36.587 0 0 0-2.041-1.015c-.398-.178-.812-.337-1.22-.505a38.909 38.909 0 0 0-1.959-.752c-.44-.153-.884-.288-1.333-.424a36.162 36.162 0 0 0-1.984-.545c-.64 13.462-6.036 26.217-15.74 35.942a10.823 10.823 0 0 1-7.72 3.206 10.828 10.828 0 0 1-7.723-3.206c-4.255-4.264-4.255-11.206 0-15.472 5.216-5.224 8.33-11.906 9.114-19.056C62.45 57.142 52.21 74.477 55.502 92.51c3.266 17.899 18.753 30.47 36.257 30.678.806.01 1.62-.03 2.437-.068.383-.023.761-.023 1.144-.049 1.2-.104 2.403-.256 3.61-.479 3.015-.553 5.86-1.485 8.537-2.693l21.32 14.76 14.751-2.7 2.697 14.775 14.935-2.568 2.686 14.775 14.94-2.569 2.45 13.398 25.534-4.682-4.54-23.045z" id="e"/><filter x="-50%" y="-50%" width="200%" height="200%" filterUnits="objectBoundingBox" id="d"><feOffset dy="4" in="SourceAlpha" result="shadowOffsetOuter1"/><feGaussianBlur stdDeviation="2.5" in="shadowOffsetOuter1" result="shadowBlurOuter1"/><feColorMatrix values="0 0 0 0 0 0 0 0 0 0 0 0 0 0 0 0 0 0 0.5 0" in="shadowBlurOuter1"/></filter><path d="M75.001 75.08a3.65 3.65 0 0 0 0 5.157 3.615 3.615 0 0 0 2.574 1.068c.93 0 1.862-.354 2.574-1.068C90.873 69.49 95.22 54.785 93.297 40.782c-1.339-9.749-5.686-19.154-13.146-26.628C71.06 5.041 59.115.487 47.173.487c-2.7 0-5.39.265-8.055.731-.283.05-.575.068-.859.121-.672.132-1.334.33-2 .492-.794.188-1.591.347-2.374.578-.12.036-.24.09-.357.125-5.106 1.558-9.977 4.044-14.402 7.39-1.713 1.293-3.378 2.67-4.934 4.232-18.186 18.219-18.186 47.864 0 66.085a46.494 46.494 0 0 0 9.71 7.43c.055-.157.089-.316.146-.475.607-1.661 1.36-3.312 2.418-5.285.162-.307.327-.608.492-.899a38.966 38.966 0 0 1-7.622-5.93c-15.344-15.372-15.344-40.395 0-55.77 2.32-2.325 4.881-4.253 7.574-5.879 1.383-.83 2.815-1.538 4.27-2.184.356-.16.707-.312 1.062-.456 1.45-.598 2.92-1.13 4.418-1.545.132-.036.265-.06.394-.089a39.136 39.136 0 0 1 4.255-.869c.37-.055.739-.11 1.109-.157a39.375 39.375 0 0 1 4.602-.31c.055 0 .108-.01.163-.01.694 0 1.381.047 2.073.087.353.017.704.015 1.058.043 1.112.089 2.227.22 3.333.402a39.047 39.047 0 0 1 17.221 7.413c1.434 1.087 2.83 2.242 4.137 3.55 6.16 6.17 9.802 13.902 11.016 21.938C87.83 53.22 84.187 65.873 75 75.08z" id="g"/><filter x="-50%" y="-50%" width="200%" height="200%" filterUnits="objectBoundingBox" id="f"><feOffset dy="4" in="SourceAlpha" result="shadowOffsetOuter1"/><feGaussianBlur stdDeviation="2.5" in="shadowOffsetOuter1" result="shadowBlurOuter1"/><feColorMatrix values="0 0 0 0 0 0 0 0 0 0 0 0 0 0 0 0 0 0 0.5 0" in="shadowBlurOuter1"/></filter></defs><g transform="translate(15 15)" fill="none" fill-rule="evenodd"><circle stroke="#31A217" stroke-width="30" fill="#31A217" cx="159" cy="159" r="159"/><g fill-rule="nonzero"><g transform="rotate(15 -104.35 381.286)"><use fill="#000" filter="url(#a)" xlink:href="#b"/><use fill="url(#c)" fill-rule="evenodd" xlink:href="#b"/></g><g transform="rotate(15 -104.35 381.286)"><use fill="#000" filter="url(#d)" xlink:href="#e"/><use fill="#FFF" fill-rule="evenodd" xlink:href="#e"/></g><g transform="rotate(15 -104.35 381.286)"><use fill="#000" filter="url(#f)" xlink:href="#g"/><use fill="#FFF" fill-rule="evenodd" xlink:href="#g"/></g></g></g></svg>