<svg xmlns:dc="http://purl.org/dc/elements/1.1/" xmlns:cc="http://creativecommons.org/ns#" xmlns:rdf="http://www.w3.org/1999/02/22-rdf-syntax-ns#" xmlns:svg="http://www.w3.org/2000/svg" xmlns="http://www.w3.org/2000/svg" xmlns:sodipodi="http://sodipodi.sourceforge.net/DTD/sodipodi-0.dtd" xmlns:inkscape="http://www.inkscape.org/namespaces/inkscape" version="1.1" x="0px" y="0px" viewBox="0 0 100 100"><g transform="translate(0,-952.36218)"><path style="text-indent:0;text-transform:none;direction:ltr;block-progression:tb;baseline-shift:baseline;color:#cccccc;enable-background:accumulate;" d="m 50.000008,964.36212 c -2.36412,0 -4.54297,1.21994 -5.75,3.25 L 6.9062575,1030.5184 c -1.20728,2.0359 -1.21045,4.5598 0,6.5938 1.2104498,2.034 3.4120295,3.2559 5.7812495,3.25 l 74.625001,0 c 2.3692,0.01 4.57083,-1.216 5.78125,-3.25 1.21042,-2.034 1.20727,-4.5579 0,-6.5938 l -37.34375,-62.90628 c -1.20703,-2.03006 -3.38588,-3.25 -5.75,-3.25 z m 0,4 c 0.89582,0 1.88681,0.5653 2.3125,1.28125 l 37.34375,62.90633 c 0.42558,0.7177 0.42675,1.7829 0,2.5 -0.42675,0.7171 -1.44629,1.3147 -2.34375,1.3125 l -74.625001,0 c -0.89747,0 -1.91699,-0.5954 -2.34375,-1.3125 -0.4267597,-0.7171 -0.4255897,-1.7823 0,-2.5 l 37.343751,-62.90633 c 0.42569,-0.71595 1.41668,-1.28125 2.3125,-1.28125 z m 0,18 c -1.1046,0 -2,0.8954 -2,2 l 0,28.00008 c 0,1.1046 0.8954,2 2,2 1.1046,0 2,-0.8954 2,-2 l 0,-28.00008 c 0,-1.1046 -0.8954,-2 -2,-2 z m 0,36.00008 c -1.10457,0 -2,0.8954 -2,2 0,1.1046 0.89543,2 2,2 1.10457,0 2,-0.8954 2,-2 0,-1.1046 -0.89543,-2 -2,-2 z" fill="#000" fill-opacity="1" stroke="none" marker="none" visibility="visible" display="inline" overflow="visible"></path></g></svg>
