<svg width="41" height="39" viewBox="0 0 41 39" xmlns="http://www.w3.org/2000/svg"><title>download-link</title><g fill-rule="nonzero" fill="#ffffff"><path d="M36.042 28.82v4.464H5.006v-4.463H.524V37.7h39.904v-8.88z"/><path d="M35.565 28.82v4.464l.477-.48H5.006l.477.48v-4.463c0-.24-.239-.48-.477-.48H.572c-.238 0-.477.24-.477.48v8.927c0 .24.239.48.477.48h39.904c.238 0 .476-.24.476-.48V28.82c0-.24-.238-.48-.476-.48h-4.434c-.62 0-.62.96 0 .96h4.434l-.477-.48v8.927l.477-.48H.572l.477.48V28.82l-.477.48h4.434l-.477-.48v4.463c0 .24.238.48.477.48h31.036c.238 0 .477-.24.477-.48v-4.463c0-.624-.954-.624-.954 0z"/><g><path d="M9.44 14.086L15.35 14V0H25.65v14l5.96.086L20.5 28.821z"/></g></g></svg>