<svg width="80" height="59" viewBox="0 0 80 59" xmlns="http://www.w3.org/2000/svg" xmlns:xlink="http://www.w3.org/1999/xlink"><title>Group 5</title><defs><path d="M62.5.5l-45 54" id="b"/><filter x="-50%" y="-50%" width="200%" height="200%" filterUnits="objectBoundingBox" id="a"><feMorphology radius="3.5" operator="dilate" in="SourceAlpha" result="shadowSpreadOuter1"/><feOffset dx="1" dy="3" in="shadowSpreadOuter1" result="shadowOffsetOuter1"/><feComposite in="shadowOffsetOuter1" in2="SourceAlpha" operator="out" result="shadowOffsetOuter1"/><feColorMatrix values="0 0 0 0 1 0 0 0 0 1 0 0 0 0 1 0 0 0 1 0" in="shadowOffsetOuter1"/></filter></defs><g fill="none" fill-rule="evenodd"><g fill-rule="nonzero" fill="#818181"><path d="M79.377 26.73C69.005 12.738 55.03 5.027 40 5.027c-15.03 0-29.005 7.71-39.377 21.705-.802 1.082-.802 2.456 0 3.538C10.995 44.263 24.97 51.974 40 51.974c15.03 0 29.005-7.71 39.377-21.705.802-1.082.802-2.456 0-3.538zM40 45.268c-11.536 0-22.553-5.928-31.224-16.767C17.432 17.661 28.448 11.733 40 11.733S62.553 17.661 71.224 28.5C62.553 39.339 51.536 45.267 40 45.267z"/><path d="M47.995 25.147c-2.203 0-3.998-1.505-3.998-3.354 0-.91.441-1.742 1.15-2.35A13.611 13.611 0 0 0 40 18.44c-6.626 0-11.992 4.502-11.992 10.06 0 5.558 5.366 10.06 11.992 10.06 6.626 0 11.992-4.502 11.992-10.06 0-1.558-.456-3.01-1.196-4.317-.724.594-1.715.964-2.801.964z"/></g><g transform="translate(0 2)"><use fill="#000" filter="url(#a)" xlink:href="#b"/><use stroke="#818181" stroke-width="7" fill="#818181" xlink:href="#b"/></g></g></svg>