<svg width="80" height="47" viewBox="0 0 80 47" xmlns="http://www.w3.org/2000/svg"><title>noun_800026</title><g fill-rule="nonzero" fill="#818181"><path d="M79.377 21.73C69.005 7.738 55.03.027 40 .027 24.97.026 10.995 7.736.623 21.731c-.802 1.082-.802 2.456 0 3.538C10.995 39.263 24.97 46.974 40 46.974c15.03 0 29.005-7.71 39.377-21.705.802-1.082.802-2.456 0-3.538zM40 40.268c-11.536 0-22.553-5.928-31.224-16.767C17.432 12.661 28.448 6.733 40 6.733S62.553 12.661 71.224 23.5C62.553 34.339 51.536 40.267 40 40.267z"/><path d="M47.995 20.147c-2.203 0-3.998-1.505-3.998-3.354 0-.91.441-1.742 1.15-2.35A13.611 13.611 0 0 0 40 13.44c-6.626 0-11.992 4.502-11.992 10.06 0 5.558 5.366 10.06 11.992 10.06 6.626 0 11.992-4.502 11.992-10.06 0-1.558-.456-3.01-1.196-4.317-.724.594-1.715.964-2.801.964z"/></g></svg>