<svg width="348" height="348" viewBox="0 0 348 348" xmlns="http://www.w3.org/2000/svg" xmlns:xlink="http://www.w3.org/1999/xlink"><title>feedback-header</title><defs><radialGradient cy="0%" fx="50%" fy="0%" r="233.931%" id="c"><stop stop-color="#FFF" offset="0%"/><stop stop-color="#FAFAFA" offset="9.215%"/><stop stop-color="#FAFAFA" offset="9.215%"/><stop stop-color="#FFF" offset="23.372%"/><stop stop-color="#31A217" offset="100%"/></radialGradient><path d="M261.55 240.56c-3.817-4.478-6.618-8.072-8.866-14.499-4.655-17.35.788-37.235.788-37.235l-.03.02a107.684 107.684 0 0 0 5.533-34.097C258.975 95.24 210.845 47 151.488 47 92.13 47.002 44 95.24 44 154.752c0 46.053 28.839 85.337 69.385 100.754l-.02.002s.253.103.715.274a106.622 106.622 0 0 0 16.502 4.663c21.967 4.966 64.302 10.6 123.243.7 14.645-2.517 14.923-12.133 7.725-20.584zm-90.717-61.481h-39.969c-3.912 0-7.082-3.18-7.082-7.102s3.172-7.1 7.082-7.1h39.97c3.914 0 7.082 3.178 7.082 7.1 0 3.922-3.168 7.102-7.083 7.102zM187.964 151h-57.1c-3.912 0-7.082-3.178-7.082-7.1 0-3.92 3.172-7.099 7.082-7.099h57.1c3.914 0 7.082 3.18 7.082 7.1 0 3.921-3.17 7.1-7.082 7.1z" id="b"/><filter x="-50%" y="-50%" width="200%" height="200%" filterUnits="objectBoundingBox" id="a"><feMorphology radius=".5" operator="dilate" in="SourceAlpha" result="shadowSpreadOuter1"/><feOffset dy="2" in="shadowSpreadOuter1" result="shadowOffsetOuter1"/><feGaussianBlur stdDeviation="2" in="shadowOffsetOuter1" result="shadowBlurOuter1"/><feComposite in="shadowBlurOuter1" in2="SourceAlpha" operator="out" result="shadowBlurOuter1"/><feColorMatrix values="0 0 0 0 0 0 0 0 0 0 0 0 0 0 0 0 0 0 0.5 0" in="shadowBlurOuter1"/></filter></defs><g transform="translate(15 15)" fill="none" fill-rule="evenodd"><circle stroke="#31A217" stroke-width="30" fill="#31A217" cx="159" cy="159" r="159"/><g fill-rule="nonzero"><use fill="#000" filter="url(#a)" xlink:href="#b"/><use stroke="#979797" fill="url(#c)" fill-rule="evenodd" xlink:href="#b"/></g></g></svg>