<svg version="1.2" xmlns="http://www.w3.org/2000/svg" viewBox="0 0 727 446" width="727" height="446">
	<title>reply-icon-svg</title>
	<defs>
		<clipPath clipPathUnits="userSpaceOnUse" id="cp1">
			<path d="m727 0v446h-726.5v-446z"/>
		</clipPath>
	</defs>
	<style>
		.s0 { fill: #4f4f4f } 
		.s1 { fill: #31a217 } 
		.s2 { fill: #ffffff } 
	</style>
	<g id="Clip-Path" clip-path="url(#cp1)">
		<g>
			<path fill-rule="evenodd" class="s0" d="m459.5 128.2q23.5-5.7 49.3-9.3v-118.9l218.2 208.1-218.2 208.2v-121.9c-155.8 0-264.9 47.5-342.8 151.6 26.2-124.8 96.3-249.7 247.3-304.1 14.6-5.3 30-9.9 46.2-13.7z"/>
			<g>
				<g>
					<path class="s1" d="m220.6 446q1.4 0 2.9 0c123.1 0 223-99.9 223-223 0-123.1-99.9-223-223-223-123.1 0-223 99.9-223 223 0 122.1 98.3 221.4 220.1 223z"/>
					<g>
						<path fill-rule="evenodd" class="s2" d="m112.1 180.8h19.3v-25.7c0-49.6 40.3-89.9 89.9-89.9 49.5 0 89.8 40.3 89.8 89.9v25.7h19.3c3.6 0 6.4 2.8 6.4 6.4v160.5c0 14.1-11.5 25.7-25.7 25.7h-179.7c-14.2 0-25.7-11.6-25.7-25.7v-160.5c0-3.6 2.9-6.4 6.4-6.4zm57.8 0h102.7v-25.7c0-28.3-23-51.4-51.3-51.4-28.3 0-51.4 23.1-51.4 51.4zm32.1 134.1c-0.2 1.8 0.4 3.6 1.6 5 1.3 1.3 3 2.1 4.8 2.1h25.7c1.8 0 3.6-0.8 4.8-2.1 1.2-1.4 1.8-3.2 1.6-5l-4.1-36.4c6.6-4.8 10.6-12.4 10.6-20.7 0-14.1-11.6-25.7-25.7-25.7-14.2 0-25.7 11.6-25.7 25.7 0 8.3 3.9 15.9 10.5 20.7z"/>
					</g>
				</g>
			</g>
		</g>
	</g>
</svg>