<?xml version="1.0" encoding="UTF-8"?>
<svg version="1.1" xmlns="http://www.w3.org/2000/svg" width="55" height="48">
<path d="M0 0 C5.66129431 4.69766975 10.85228904 9.74723372 16 15 C14.68285542 17.91537501 13.26341874 19.9847013 10.99609375 22.234375 C10.42052734 22.80800781 9.84496094 23.38164062 9.25195312 23.97265625 C8.65318359 24.55917969 8.05441406 25.14570312 7.4375 25.75 C6.53354492 26.65298828 6.53354492 26.65298828 5.61132812 27.57421875 C1.14038584 32 1.14038584 32 0 32 C0 29.36 0 26.72 0 24 C-6.19227292 24.24047662 -10.41562052 24.41562052 -15 29 C-18.99932818 30.99966409 -23.6634046 30.63914009 -28 30 C-32.30190298 27.66663566 -35.13834499 24.5199252 -37 20 C-37.45604898 15.28749391 -37.49819138 12.99638275 -35.375 8.75 C-32.18206779 5.05292059 -29.58602618 2.41275336 -24.6015625 1.6171875 C-18.74771774 1.3535008 -15.46514584 2.22179967 -11 6 C-10.67 6.33 -10.34 6.66 -10 7 C-8.31816052 7.23287008 -6.6287584 7.41264166 -4.9375 7.5625 C-4.01839844 7.64628906 -3.09929688 7.73007813 -2.15234375 7.81640625 C-1.08693359 7.90728516 -1.08693359 7.90728516 0 8 C0 5.36 0 2.72 0 0 Z " fill="#49AD34" transform="translate(38,8)"/>
<path d="M0 0 C5.66129431 4.69766975 10.85228904 9.74723372 16 15 C14.68285542 17.91537501 13.26341874 19.9847013 10.99609375 22.234375 C10.42052734 22.80800781 9.84496094 23.38164062 9.25195312 23.97265625 C8.65318359 24.55917969 8.05441406 25.14570312 7.4375 25.75 C6.83486328 26.35199219 6.23222656 26.95398438 5.61132812 27.57421875 C1.14038584 32 1.14038584 32 0 32 C0 29.36 0 26.72 0 24 C-3.3 24 -6.6 24 -10 24 C-9.505 22.515 -9.505 22.515 -9 21 C-8.90691456 19.33541327 -8.87003815 17.66718003 -8.875 16 C-8.87113281 14.700625 -8.87113281 14.700625 -8.8671875 13.375 C-8.90405795 10.84988305 -8.90405795 10.84988305 -10 8 C-6.7 8 -3.4 8 0 8 C0 5.36 0 2.72 0 0 Z " fill="#555555" transform="translate(38,8)"/>
<path d="M0 0 C4.25331406 5.24575401 3.21315274 11.60541777 3 18 C-1.62 18 -6.24 18 -11 18 C-11.4369645 4.89106487 -11.4369645 4.89106487 -8 0 C-4.97172501 -1.51413749 -3.18944514 -0.97636076 0 0 Z " fill="#E6F3E4" transform="translate(20,15)"/>
<path d="M0 0 C5.01319327 -0.35666988 8.85303903 -0.56305357 13.4375 1.6875 C16.79656012 4.71884694 18.69355631 6.74139648 19.31640625 11.33203125 C19.58141295 17.0339496 18.95285684 20.59538809 15 25 C11.33012779 26.22329074 8.66032178 25.88021006 4.8125 25.5625 C3.54019531 25.46066406 2.26789062 25.35882813 0.95703125 25.25390625 C-0.01878906 25.17011719 -0.99460937 25.08632813 -2 25 C-2 24.67 -2 24.34 -2 24 C2.62 24 7.24 24 12 24 C11.814375 20.9371875 11.814375 20.9371875 11.625 17.8125 C11.55539063 16.66394531 11.48578125 15.51539063 11.4140625 14.33203125 C10.79841144 9.37778267 9.57653872 6.41396877 6 3 C6 2.34 6 1.68 6 1 C4.02 1 2.04 1 0 1 C0 0.67 0 0.34 0 0 Z " fill="#3DA527" transform="translate(11,10)"/>
<path d="M0 0 C1.65 0.33 3.3 0.66 5 1 C5 1.99 5 2.98 5 4 C3.02 4 1.04 4 -1 4 C-0.67 2.68 -0.34 1.36 0 0 Z " fill="#1A9708" transform="translate(14,17)"/>
<path d="M0 0 C0.33 1.65 0.66 3.3 1 5 C0.01 5 -0.98 5 -2 5 C-2.33 4.01 -2.66 3.02 -3 2 C-4.65 2 -6.3 2 -8 2 C-8 1.34 -8 0.68 -8 0 C-4.71303767 -0.79953138 -3.28976808 -1.09658936 0 0 Z " fill="#D7EDD2" transform="translate(21,16)"/>
</svg>
