<svg width="173" height="228" viewBox="0 0 173 228" xmlns="http://www.w3.org/2000/svg" xmlns:xlink="http://www.w3.org/1999/xlink"><title>pub-key-icon</title><defs><radialGradient cy="0%" fx="50%" fy="0%" r="233.931%" id="w"><stop stop-color="#FFF" offset="0%"/><stop stop-color="#FAFAFA" offset="9.215%"/><stop stop-color="#FAFAFA" offset="9.215%"/><stop stop-color="#FFF" offset="23.372%"/><stop stop-color="#31A217" offset="100%"/></radialGradient><path d="M123.784.521v30.844a6.002 6.002 0 0 0 6.003 6.002h30.728L123.784.521z" id="v"/><filter x="-50%" y="-50%" width="200%" height="200%" filterUnits="objectBoundingBox" id="u"><feOffset dy="2" in="SourceAlpha" result="shadowOffsetOuter1"/><feGaussianBlur stdDeviation="2" in="shadowOffsetOuter1" result="shadowBlurOuter1"/><feColorMatrix values="0 0 0 0 0 0 0 0 0 0 0 0 0 0 0 0 0 0 0.5 0" in="shadowBlurOuter1"/></filter><path d="M124.711 45.082a8.994 8.994 0 0 1-8.997-9.007V1.097L3.006 1A3.004 3.004 0 0 0 0 4.003V212.02c0 4.971 4.026 9 8.991 9h152.532c1.654 0 3-1.339 3.004-2.997L165 45.083h-40.289z" id="y"/><filter x="-50%" y="-50%" width="200%" height="200%" filterUnits="objectBoundingBox" id="x"><feOffset dy="2" in="SourceAlpha" result="shadowOffsetOuter1"/><feGaussianBlur stdDeviation="2" in="shadowOffsetOuter1" result="shadowBlurOuter1"/><feColorMatrix values="0 0 0 0 0 0 0 0 0 0 0 0 0 0 0 0 0 0 0.5 0" in="shadowBlurOuter1"/></filter><rect id="a" width="25" height="8" rx="4"/><mask id="z" x="0" y="0" width="25" height="8" fill="#fff"><use xlink:href="#a"/></mask><rect id="b" x="35" width="25" height="8" rx="4"/><mask id="A" x="0" y="0" width="25" height="8" fill="#fff"><use xlink:href="#b"/></mask><rect id="c" x="70" width="25" height="8" rx="4"/><mask id="B" x="0" y="0" width="25" height="8" fill="#fff"><use xlink:href="#c"/></mask><rect id="d" x="105" width="25" height="8" rx="4"/><mask id="C" x="0" y="0" width="25" height="8" fill="#fff"><use xlink:href="#d"/></mask><rect id="e" width="25" height="8" rx="4"/><mask id="D" x="0" y="0" width="25" height="8" fill="#fff"><use xlink:href="#e"/></mask><rect id="f" x="35" width="25" height="8" rx="4"/><mask id="E" x="0" y="0" width="25" height="8" fill="#fff"><use xlink:href="#f"/></mask><rect id="g" x="70" width="25" height="8" rx="4"/><mask id="F" x="0" y="0" width="25" height="8" fill="#fff"><use xlink:href="#g"/></mask><rect id="h" x="105" width="25" height="8" rx="4"/><mask id="G" x="0" y="0" width="25" height="8" fill="#fff"><use xlink:href="#h"/></mask><rect id="i" width="25" height="8" rx="4"/><mask id="H" x="0" y="0" width="25" height="8" fill="#fff"><use xlink:href="#i"/></mask><rect id="j" x="35" width="25" height="8" rx="4"/><mask id="I" x="0" y="0" width="25" height="8" fill="#fff"><use xlink:href="#j"/></mask><rect id="k" x="70" width="25" height="8" rx="4"/><mask id="J" x="0" y="0" width="25" height="8" fill="#fff"><use xlink:href="#k"/></mask><rect id="l" x="105" width="25" height="8" rx="4"/><mask id="K" x="0" y="0" width="25" height="8" fill="#fff"><use xlink:href="#l"/></mask><rect id="m" width="25" height="8" rx="4"/><mask id="L" x="0" y="0" width="25" height="8" fill="#fff"><use xlink:href="#m"/></mask><rect id="n" x="35" width="25" height="8" rx="4"/><mask id="M" x="0" y="0" width="25" height="8" fill="#fff"><use xlink:href="#n"/></mask><rect id="o" x="70" width="25" height="8" rx="4"/><mask id="N" x="0" y="0" width="25" height="8" fill="#fff"><use xlink:href="#o"/></mask><rect id="p" x="105" width="25" height="8" rx="4"/><mask id="O" x="0" y="0" width="25" height="8" fill="#fff"><use xlink:href="#p"/></mask><rect id="q" width="25" height="8" rx="4"/><mask id="P" x="0" y="0" width="25" height="8" fill="#fff"><use xlink:href="#q"/></mask><rect id="r" x="35" width="25" height="8" rx="4"/><mask id="Q" x="0" y="0" width="25" height="8" fill="#fff"><use xlink:href="#r"/></mask><rect id="s" x="70" width="25" height="8" rx="4"/><mask id="R" x="0" y="0" width="25" height="8" fill="#fff"><use xlink:href="#s"/></mask><rect id="t" x="105" width="25" height="8" rx="4"/><mask id="S" x="0" y="0" width="25" height="8" fill="#fff"><use xlink:href="#t"/></mask></defs><g fill="none" fill-rule="evenodd"><g fill-rule="nonzero" transform="translate(4 1)"><use fill="#000" filter="url(#u)" xlink:href="#v"/><use fill="url(#w)" fill-rule="evenodd" xlink:href="#v"/></g><g fill-rule="nonzero" transform="translate(4 1)"><use fill="#000" filter="url(#x)" xlink:href="#y"/><use fill="url(#w)" fill-rule="evenodd" xlink:href="#y"/></g><g stroke="#358622" stroke-width="2" opacity=".6" fill="#31A217"><g transform="translate(21.5 80)"><use mask="url(#z)" xlink:href="#a"/><use mask="url(#A)" xlink:href="#b"/><use mask="url(#B)" xlink:href="#c"/><use mask="url(#C)" xlink:href="#d"/></g><g transform="translate(21.5 105)"><use mask="url(#D)" xlink:href="#e"/><use mask="url(#E)" xlink:href="#f"/><use mask="url(#F)" xlink:href="#g"/><use mask="url(#G)" xlink:href="#h"/></g><g transform="translate(21.5 130)"><use mask="url(#H)" xlink:href="#i"/><use mask="url(#I)" xlink:href="#j"/><use mask="url(#J)" xlink:href="#k"/><use mask="url(#K)" xlink:href="#l"/></g><g transform="translate(21.5 155)"><use mask="url(#L)" xlink:href="#m"/><use mask="url(#M)" xlink:href="#n"/><use mask="url(#N)" xlink:href="#o"/><use mask="url(#O)" xlink:href="#p"/></g><g transform="translate(21.5 180)"><use mask="url(#P)" xlink:href="#q"/><use mask="url(#Q)" xlink:href="#r"/><use mask="url(#R)" xlink:href="#s"/><use mask="url(#S)" xlink:href="#t"/></g></g><path d="M42.324 35.785c0 3.086-.923 5.47-2.768 7.152-1.845 1.681-4.466 2.522-7.863 2.522h-2.127v9.163H22V27h9.693c3.537 0 6.193.762 7.968 2.286 1.775 1.524 2.663 3.69 2.663 6.5zm-12.758 3.59h1.38c1.136 0 2.04-.315 2.71-.945.67-.63 1.006-1.498 1.006-2.607 0-1.864-1.047-2.796-3.142-2.796h-1.954v6.348zM69.574 27v16.626c0 3.615-1.038 6.414-3.113 8.398S61.394 55 57.487 55c-3.819 0-6.753-.964-8.802-2.89-2.05-1.928-3.075-4.699-3.075-8.314V27h7.605v16.21c0 1.953.37 3.37 1.111 4.252.74.881 1.833 1.322 3.276 1.322 1.545 0 2.665-.438 3.361-1.313.696-.875 1.044-2.308 1.044-4.298V27h7.567zm4.857 0h9.77c3.805 0 6.63.557 8.476 1.672 1.845 1.115 2.767 2.85 2.767 5.205 0 1.55-.402 2.872-1.206 3.968-.805 1.096-1.865 1.801-3.18 2.116v.189c1.737.453 2.995 1.209 3.774 2.267.779 1.058 1.168 2.43 1.168 4.119 0 2.506-.955 4.48-2.864 5.923-1.909 1.442-4.51 2.163-7.806 2.163H74.431V27zm7.566 10.6h2.28c1.085 0 1.925-.221 2.519-.662.594-.44.89-1.096.89-1.965 0-1.55-1.187-2.324-3.562-2.324h-2.127v4.95zm0 5.46v5.8h2.663c2.363 0 3.544-.983 3.544-2.948 0-.92-.316-1.625-.948-2.116-.633-.491-1.549-.737-2.75-.737h-2.509z" fill="#31A217"/></g></svg>