<svg xmlns="http://www.w3.org/2000/svg" width="22" height="22" viewBox="0 0 22 22">
    <path fill="#65707C" fill-rule="evenodd" d="M9.001 0c1.657 0 3 1.343 3 3 0 .35-.06.687-.17 1H16c1.104 0 2 .895 2 2v4.17c.312-.11.649-.17 1-.17C20.656 10 22 11.343 22 13c0 1.656-1.343 3-3 3-.35 0-.687-.06-1-.171v4.17c0 1.105-.895 2-2 2h-4.17c.11-.313.17-.65.17-1 0-1.657-1.342-3-2.999-3s-3 1.343-3 3c0 .35.06.687.171 1h-4.17c-1.105 0-2-.895-2-2L0 15.828c.313.111.65.171 1.002.171 1.656 0 3-1.343 3-3 0-1.656-1.344-3-3-3-.352 0-.689.061-1.002.172L.002 6c0-1.105.895-2 2-2h4.17c-.11-.313-.17-.65-.17-1 0-1.657 1.342-3 3-3z"/>
</svg>
