<svg width="74" height="74" viewBox="0 0 74 74" xmlns="http://www.w3.org/2000/svg"><title>question-icon</title><path d="M37 0C16.527 0 0 16.527 0 37s16.527 37 37 37 37-16.527 37-37S57.473 0 37 0zm0 57.556a4.422 4.422 0 0 1-4.44-4.44 4.422 4.422 0 0 1 4.44-4.44 4.422 4.422 0 0 1 4.44 4.44 4.422 4.422 0 0 1-4.44 4.44zM47.031 32.56a18.07 18.07 0 0 1-1.644 1.891c-.411.411-.905.822-1.48 1.48-.658.576-1.151 1.069-1.563 1.562-.41.411-.822.823-1.068 1.151-.74.987-1.07 2.303-.987 3.536v2.549h-6.413v-3.453a7.3 7.3 0 0 1 .575-3.454c.658-1.069 1.398-2.055 2.385-2.96l4.11-4.11c.905-.988 1.316-2.22 1.316-3.536 0-1.316-.493-2.55-1.398-3.454-.904-.904-2.22-1.398-3.535-1.398-1.316-.082-2.631.412-3.618 1.316-.987.904-1.562 2.22-1.644 3.536H25.16c.247-3.043 1.644-5.92 3.947-7.894 2.384-1.973 5.344-2.96 8.469-2.878 2.96-.164 5.92.823 8.222 2.714 2.138 1.809 3.206 4.44 3.206 7.729-.082 2.055-.74 4.11-1.973 5.673z" fill-rule="nonzero" fill="#fff"/></svg>