<svg width="120" height="120" viewBox="0 0 120 120" xmlns="http://www.w3.org/2000/svg"><title>Shape</title><path d="M93.196 10.867C83.689 4.59 72.276.933 60 .933 26.863.933 0 27.587 0 60.466 0 93.346 26.863 120 60 120s60-26.654 60-59.534c0-3.736-.347-7.392-1.01-10.937l-9.936 1.283c.62 3.123.946 6.351.946 9.654 0 27.4-22.386 49.612-50 49.612S10 87.866 10 60.466c0-27.4 22.386-49.61 50-49.61 10.458 0 20.166 3.185 28.193 8.632l-6.523 11.24c-1.253 2.159-.252 3.655 2.24 3.333l25.499-3.294c2.508-.324 3.73-2.455 2.764-4.764l-9.881-23.615C101.32.065 99.525-.04 98.27 2.124l-5.074 8.743z" fill-rule="nonzero" fill="#000"/></svg>