<?xml version="1.0" standalone="no"?><!-- Generator: Gravit.io --><svg xmlns="http://www.w3.org/2000/svg" xmlns:xlink="http://www.w3.org/1999/xlink" style="isolation:isolate" viewBox="49 0 726.5 446" width="726.5px" height="446px"><defs><clipPath id="_clipPath_bZIiDMJqyo0VudyVzdkIWmIl1LyCi30e"><rect x="49" y="0" width="726.5" height="446"/></clipPath></defs><g clip-path="url(#_clipPath_bZIiDMJqyo0VudyVzdkIWmIl1LyCi30e)"><path d=" M 316.527 128.165 C 300.846 124.371 284.395 121.281 267.166 118.933 L 267.166 0 L 49 208.133 L 267.166 416.266 L 267.166 294.36 C 423 294.36 532.084 341.933 610 446 C 583.83 321.164 513.708 196.329 362.729 141.91 C 348.106 136.64 332.724 132.029 316.527 128.165" fill-rule="evenodd" fill="rgb(79,79,79)"/><g><g><path d=" M 555.421 445.975 C 554.45 445.994 553.476 446 552.5 446 C 429.423 446 329.5 346.077 329.5 223 C 329.5 99.923 429.423 0 552.5 0 C 675.577 0 775.5 99.923 775.5 223 C 775.5 345.101 677.155 444.414 555.421 445.975" fill="rgb(49,162,23)"/><g><path d=" M 573.953 314.875 C 574.153 316.687 573.57 318.505 572.354 319.866 C 571.138 321.226 569.395 322.004 567.57 322.004 L 541.89 322.004 C 540.066 322.004 538.323 321.226 537.107 319.866 C 535.89 318.505 535.307 316.687 535.508 314.875 L 539.558 278.455 C 532.981 273.672 529.05 266.104 529.05 257.803 C 529.05 243.641 540.567 232.123 554.731 232.123 C 568.894 232.123 580.411 243.64 580.411 257.803 C 580.411 266.104 576.48 273.672 569.903 278.455 L 573.953 314.875 L 573.953 314.875 Z  M 606.09 180.763 L 503.37 180.763 L 503.37 155.083 C 503.37 126.764 526.411 103.723 554.73 103.723 C 583.049 103.723 606.09 126.764 606.09 155.083 L 606.09 180.763 L 606.09 180.763 L 606.09 180.763 Z  M 663.87 180.763 L 644.61 180.763 L 644.61 155.083 C 644.61 105.523 604.291 65.203 554.73 65.203 C 505.169 65.203 464.85 105.523 464.85 155.083 L 464.85 180.763 L 445.59 180.763 C 442.042 180.763 439.17 183.635 439.17 187.184 L 439.17 347.684 C 439.17 361.846 450.687 373.363 464.85 373.363 L 644.61 373.363 C 658.773 373.363 670.29 361.846 670.29 347.683 L 670.29 187.184 C 670.29 183.635 667.418 180.763 663.87 180.763 L 663.87 180.763 Z " fill="rgb(255,255,255)"/></g></g></g></g></svg>