<svg width="384" height="384" xmlns="http://www.w3.org/2000/svg">
 <defs>
  <filter height="200%" width="200%" y="-50%" x="-50%" id="svg_21_blur">
   <feGaussianBlur stdDeviation="0" in="SourceGraphic"/>
  </filter>
 </defs>
 <g class="currentLayer">
  <title>Layer 1</title>
  <g fill="#31a217" id="svg_1">
   <g fill="#31a217" id="svg_2">
    <path fill="#31a217" id="svg_3" d="m149.85656,116.80944l0,-85.333l-149.333,149.333l149.333,149.333l0,-87.466c106.667,0 181.334,34.133 234.667,108.8c-21.333,-106.667 -85.333,-213.333 -234.667,-234.667z"/>
   </g>
  </g>
  <g id="svg_4"/>
  <g id="svg_5"/>
  <g id="svg_6"/>
  <g id="svg_7"/>
  <g id="svg_8"/>
  <g id="svg_9"/>
  <g id="svg_10"/>
  <g id="svg_11"/>
  <g id="svg_12"/>
  <g id="svg_13"/>
  <g id="svg_14"/>
  <g id="svg_15"/>
  <g id="svg_16"/>
  <g id="svg_17"/>
  <g id="svg_18"/>
  <g filter="url(#svg_21_blur)" fill="#31a217" id="svg_21">
   <g stroke="null" transform="matrix(1.0020058078249436,-0.008209248768946303,0.008295885361214629,0.9915415397157331,-0.5339917369980753,-1.6107791987423639) " id="svg_20">
    <path stroke="null" stroke-width="99" id="svg_19" d="m379.47896,62.275911l-8.985229,0l0,-12.473283c0,-24.072176 -18.809734,-43.656051 -41.930974,-43.656051s-41.930974,19.583875 -41.930974,43.656051l0,12.473283l-8.985229,0c-1.655528,0 -2.99517,1.394755 -2.99517,3.118394l0,77.957505c0,6.879059 5.372886,12.47299 11.980399,12.47299l83.862229,0c6.607232,0 11.980118,-5.593931 11.980118,-12.473283l0,-77.957213c0,-1.723638 -1.339641,-3.118394 -2.99517,-3.118394zm-41.948383,65.140138c0.093503,0.879944 -0.178301,1.763104 -0.745774,2.424086c-0.567473,0.660689 -1.380637,1.038393 -2.231706,1.038393l-11.980399,0c-0.85107,0 -1.664233,-0.377704 -2.231706,-1.038393c-0.567473,-0.660689 -0.839557,-1.543849 -0.745774,-2.424086l1.889425,-17.68951c-3.068175,-2.323521 -4.902004,-5.999115 -4.902004,-10.031072c0,-6.879059 5.372886,-12.473283 11.980399,-12.473283s11.980399,5.593931 11.980399,12.473283c0,4.031957 -1.833829,7.707551 -4.902004,10.031072l1.889144,17.68951zm14.992697,-65.140138l-47.921033,0l0,-12.473283c0,-13.755195 10.748861,-24.946273 23.960516,-24.946273s23.960516,11.191078 23.960516,24.946273l0,12.473283z"/>
   </g>
  </g>
 </g>
 <g>
  <title>Layer 2</title>
  <rect fill="none" y="0" x="0" height="100%" width="100%" id="backgroundrect"/>
 </g>
 <g>
  <title>background</title>
  <rect fill="none" id="canvas_background" height="402" width="582" y="-1" x="-1"/>
 </g>
</svg>