<svg width="237" height="236" viewBox="0 0 237 236" xmlns="http://www.w3.org/2000/svg" xmlns:xlink="http://www.w3.org/1999/xlink"><title>servers-icon</title><defs><radialGradient cy="0%" fx="50%" fy="0%" r="233.931%" id="c"><stop stop-color="#FFF" offset="0%"/><stop stop-color="#FAFAFA" offset="9.215%"/><stop stop-color="#FAFAFA" offset="9.215%"/><stop stop-color="#FFF" offset="23.372%"/><stop stop-color="#31A217" offset="100%"/></radialGradient><path d="M196.208 99.555c4.222-4.061 6.877-9.747 6.877-16.074 0-12.331-9.978-22.332-22.289-22.332H22.313C10.005 61.15.025 71.147.025 83.481c0 12.334 9.978 22.332 22.288 22.332h117.47a51.615 51.615 0 0 0-12.678 15.925H22.313c-12.308 0-22.288 9.995-22.288 22.33 0 12.333 9.978 22.331 22.288 22.331h75.572v38.038c0 .219.029.43.063.638a11.429 11.429 0 0 0-7.23 7.245 3.638 3.638 0 0 0-.637-.064H43.774a3.679 3.679 0 0 0-3.674 3.681 3.679 3.679 0 0 0 3.674 3.681h46.307c.218 0 .429-.03.637-.064 1.518 4.565 5.77 7.883 10.84 7.883 5.066 0 9.318-3.318 10.836-7.883.209.037.42.064.637.064h46.307a3.679 3.679 0 0 0 3.674-3.68 3.679 3.679 0 0 0-3.674-3.682h-46.31c-.217 0-.428.03-.636.064a11.432 11.432 0 0 0-7.226-7.245c.037-.208.064-.42.064-.638V166.4h20.82c8.084 17.753 25.928 30.148 46.642 30.148 28.277 0 51.284-23.05 51.284-51.383 0-19.836-11.3-37.049-27.768-45.609zM22.399 93.87c-5.927 0-10.73-4.812-10.73-10.751 0-5.939 4.803-10.751 10.73-10.751 5.927 0 10.73 4.812 10.73 10.751 0 5.939-4.803 10.751-10.73 10.751zm0 60.584c-5.927 0-10.73-4.813-10.73-10.751 0-5.94 4.803-10.752 10.73-10.752 5.927 0 10.73 4.813 10.73 10.752 0 5.938-4.803 10.75-10.73 10.75zm-.086-109.226h158.483c12.308 0 22.29-9.995 22.29-22.33 0-12.333-9.98-22.331-22.29-22.331H22.313C10.005.566.025 10.56.025 22.898c0 12.331 9.978 22.33 22.288 22.33zm.086-33.449c5.927 0 10.73 4.818 10.73 10.754S28.326 33.286 22.4 33.286c-5.927 0-10.73-4.818-10.73-10.754s4.803-10.754 10.73-10.754z" id="b"/><filter x="-50%" y="-50%" width="200%" height="200%" filterUnits="objectBoundingBox" id="a"><feOffset dy="2" in="SourceAlpha" result="shadowOffsetOuter1"/><feGaussianBlur stdDeviation="2" in="shadowOffsetOuter1" result="shadowBlurOuter1"/><feColorMatrix values="0 0 0 0 0 0 0 0 0 0 0 0 0 0 0 0 0 0 0.5 0" in="shadowBlurOuter1"/></filter><radialGradient cy="54.945%" fx="50%" fy="54.945%" r="174.064%" id="f"><stop stop-color="#FFF" offset="0%"/><stop stop-color="#8FD37F" offset="100%"/></radialGradient><circle id="e" cx="175.5" cy="146.5" r="51.5"/><filter x="-50%" y="-50%" width="200%" height="200%" filterUnits="objectBoundingBox" id="d"><feMorphology radius="2" operator="dilate" in="SourceAlpha" result="shadowSpreadOuter1"/><feOffset dy="1" in="shadowSpreadOuter1" result="shadowOffsetOuter1"/><feGaussianBlur stdDeviation="2.5" in="shadowOffsetOuter1" result="shadowBlurOuter1"/><feComposite in="shadowBlurOuter1" in2="SourceAlpha" operator="out" result="shadowBlurOuter1"/><feColorMatrix values="0 0 0 0 0 0 0 0 0 0 0 0 0 0 0 0 0 0 0.5 0" in="shadowBlurOuter1"/></filter></defs><g fill="none" fill-rule="evenodd"><g fill-rule="nonzero" transform="translate(4 2)"><use fill="#000" filter="url(#a)" xlink:href="#b"/><use fill="url(#c)" fill-rule="evenodd" xlink:href="#b"/></g><g transform="translate(4 2)"><use fill="#000" filter="url(#d)" xlink:href="#e"/><use stroke="#31A217" stroke-width="4" fill="url(#f)" xlink:href="#e"/></g><path d="M198.792 142.227h-1.834l-.008-8.48c-.007-9.238-8.108-16.754-18.066-16.747-9.958.007-18.06 7.523-18.052 16.76l.015 8.48h-.654c-3.423.008-6.2 2.584-6.193 5.76v25.248c0 3.176 2.785 5.752 6.208 5.752l38.599-.02c3.423 0 6.2-2.577 6.193-5.753v-25.255c0-3.175-2.785-5.745-6.208-5.745zm-30.607.414l-.015-8.48c0-5.835 5.109-10.581 11.399-10.588 6.29 0 11.405 4.746 11.405 10.574l.015 8.48-22.804.014z" fill="#31A217" fill-rule="nonzero"/></g></svg>