<svg width="320" height="420" xmlns="http://www.w3.org/2000/svg">

 <g>
  <title>background</title>
  <rect fill="none" id="canvas_background" height="422" width="322" y="-1" x="-1"/>
 </g>
 <g>
  <title>Layer 1</title>
  <path id="svg_1" d="m280,140l-20,0l0,-40c0,-55 -45,-100 -100,-100s-100,45 -100,100l37.998,0c0,-34.004 28.003,-62.002 62.002,-62.002c34.004,0 62.002,27.998 62.002,62.002l-0.002,0l0,40l-182,0c-22.002,0 -40,17.998 -40,40l0,200c0,22.002 17.998,40 40,40l240,0c22.002,0 40,-17.998 40,-40l0,-200c0,-22.002 -17.998,-40 -40,-40zm-120,182c-22.002,0 -40,-17.998 -40,-40s17.998,-40 40,-40s40,17.998 40,40s-17.998,40 -40,40z" fill="#d18826"/>
 </g>
</svg>