<svg width="1152" height="180" viewBox="0 0 1152 180" xmlns="http://www.w3.org/2000/svg"><g fill="none" fill-rule="evenodd"><path d="M39.4 80.108l31.438 31.437-21.6 21.6c-5.467 5.468-14.331 5.468-19.799 0l-15.881-15.88a8 8 0 0 1 0-11.315L39.4 80.108z" fill="#4F4F4F"/><path d="M78.775 40.733l70.735 70.735-21.6 21.6c-5.467 5.467-14.332 5.467-19.8 0L47.277 72.233l31.5-31.5z" fill="#31A217" opacity=".9"/><path d="M123.1 6.308l100.132 100.133a7 7 0 0 1 0 9.899l-16.65 16.65c-5.468 5.468-14.332 5.468-19.8 0L86.65 32.858l26.55-26.55a7 7 0 0 1 9.9 0z" fill="#31A217"/><g><path fill="#4F4F4F" d="M359.081 3.516h20.109v134.498h-20.109z"/><path d="M1114.268 39.119h20.108v15.823h-20.108v57.36c0 7.646 6.302 13.845 14.076 13.845 2.159 0 4.204-.478 6.032-1.333v7.157c-4.269 3.758-9.906 6.043-16.086 6.043-13.327 0-24.13-10.626-24.13-23.735V3.516h20.108V39.12zM973.544 86.905a56.322 56.322 0 0 1-.036-2.017c0-30.084 24.008-54.472 53.623-54.472s53.623 24.388 53.623 54.472c0 30.083-24.008 54.471-53.623 54.471-12.796 0-24.545-4.553-33.763-12.15v44.43h-19.86V86.905h.036zm53.587 32.28c18.646 0 33.762-15.356 33.762-34.297 0-18.942-15.116-34.297-33.762-34.297-18.647 0-33.763 15.355-33.763 34.297 0 18.941 15.116 34.297 33.763 34.297zM830.887 138.014h-20.481V78.237c1.115-26.587 23.61-47.821 51.202-47.821 7.948 0 14.532 2.206 21.244 5.35l-3.184 14.575h-18.06c-16.279 0-29.6 12.318-30.654 27.896l-.067 59.777zM805.952 37.085l-15.169 14.146c-7.56-16.473-24.387-27.936-43.932-27.936-26.614 0-48.19 21.253-48.19 47.47s21.576 47.47 48.19 47.47c17.605 0 33.005-9.3 41.414-23.184l13.994 15.007c-12.396 16.934-32.596 27.956-55.408 27.956-37.703 0-68.268-30.108-68.268-67.249 0-37.14 30.565-67.249 68.268-67.249 25.245 0 47.29 13.499 59.101 33.569z" fill="#31A217"/><path d="M443.984 138.014c-29.615 0-53.623-24.086-53.623-53.799 0-29.712 24.008-53.8 53.623-53.8s53.623 24.088 53.623 53.8c0 29.713-24.008 53.8-53.623 53.8zm0-19.925c18.646 0 33.762-15.166 33.762-33.874 0-18.708-15.116-33.874-33.762-33.874-18.647 0-33.763 15.166-33.763 33.874 0 18.708 15.116 33.874 33.763 33.874zM290.073 23.295v36.592h38.69v19.779h-38.69v58.348H269.71V3.516h80.434v19.78zM493.138 30.416H656.24l-47.737 107.598-31.825-64.559-31.825 64.56-51.715-107.6zm19.89 0l31.825 66.214 31.825-66.214 31.825 66.214 27.847-66.214H513.029z" fill="#4F4F4F"/><g fill="#31A217"><path d="M890.64 171.639h19.91l63.71-141.223h-19.909z"/><path d="M917.454 149.282L863.83 30.416h19.91l43.604 96.655-9.889 22.211z"/></g></g></g></svg>
