<svg width="220" height="142" viewBox="0 0 220 142" xmlns="http://www.w3.org/2000/svg"><g fill="none" fill-rule="evenodd"><path d="M31.4 80.108l31.438 31.437-21.6 21.6c-5.467 5.468-14.331 5.468-19.799 0l-15.881-15.88a8 8 0 0 1 0-11.315L31.4 80.108z" fill="#4F4F4F"/><path d="M70.775 40.733l70.735 70.735-21.6 21.6c-5.467 5.467-14.332 5.467-19.8 0L39.277 72.233l31.5-31.5z" fill="#31A217" opacity=".9"/><path d="M115.1 6.308l100.132 100.133a7 7 0 0 1 0 9.899l-16.65 16.65c-5.468 5.468-14.332 5.468-19.8 0L78.65 32.858l26.55-26.55a7 7 0 0 1 9.9 0z" fill="#31A217"/></g></svg>
