<?xml version="1.0" encoding="UTF-8"?>
<svg width="227px" height="228px" viewBox="0 0 227 228" version="1.1" xmlns="http://www.w3.org/2000/svg" xmlns:xlink="http://www.w3.org/1999/xlink">
    <!-- Generator: Sketch 42 (36781) - http://www.bohemiancoding.com/sketch -->
    <title>contacts-icon</title>
    <desc>Created with Sketch.</desc>
    <defs>
        <radialGradient cx="50%" cy="0%" fx="50%" fy="0%" r="233.931224%" id="radialGradient-1">
            <stop stop-color="#FFFFFF" offset="0%"></stop>
            <stop stop-color="#FAFAFA" offset="9.21513762%"></stop>
            <stop stop-color="#FAFAFA" offset="9.21513762%"></stop>
            <stop stop-color="#FFFFFF" offset="23.3723474%"></stop>
            <stop stop-color="#31A217" offset="100%"></stop>
        </radialGradient>
        <path d="M172.496875,3.03869258 L19.4666667,3.03869258 C11.5552083,3.03869258 5,9.61090358 5,17.5428824 L5,207.23049 C5,215.162468 11.5552083,221.734679 19.4666667,221.734679 L172.496875,221.734679 C180.408333,221.734679 186.963542,215.162468 186.963542,207.23049 L186.963542,207.23049 L186.963542,20.7156739 L186.963542,20.7156739 L186.963542,17.5428824 C186.963542,9.61090358 180.408333,3.03869258 172.496875,3.03869258 Z M151.701042,165.530944 C151.701042,168.25048 149.440625,170.516759 146.728125,170.516759 L103.328125,170.516759 L88.6354167,170.516759 L45.4614583,170.516759 C42.7489583,170.516759 40.4885417,168.25048 40.4885417,165.530944 L40.4885417,154.87943 C40.4885417,151.48001 42.0708333,148.307219 44.5572917,146.267567 C58.7979167,134.482913 74.16875,126.777562 77.1072917,125.191166 C77.559375,124.964538 77.559375,124.73791 77.559375,124.284654 L77.559375,113.406512 C75.9770833,110.460348 74.846875,107.514185 74.3947917,104.794649 C73.2645833,104.794649 71.6822917,102.981625 69.8739583,96.8626704 C67.6135417,89.1573195 69.6479167,87.5709238 71.6822917,87.5709238 C71.45625,86.8910399 71.2302083,86.211156 71.2302083,85.5312721 L71.2302083,85.5312721 C70.5520833,81.6785967 70.3260417,78.0525492 71.2302083,74.6531297 C72.3604167,70.1205704 74.846875,66.267895 77.559375,63.3217314 C79.3677083,61.5087077 81.4020833,59.695684 83.4364583,58.3359162 C85.2447917,57.2027764 87.053125,56.0696365 89.0875,55.3897527 L89.0875,55.3897527 C90.6697917,54.9364967 92.478125,54.4832408 94.2864583,54.4832408 C99.9375,54.0299849 104.232292,55.3897527 107.396875,57.2027764 C111.917708,59.695684 113.726042,63.0951035 113.726042,63.0951035 C113.726042,63.0951035 124.35,63.7749874 120.733333,85.3046441 C120.507292,85.984528 120.507292,86.6644119 120.28125,87.3442958 C122.315625,87.3442958 124.35,88.9306916 122.089583,96.6360424 C120.28125,102.754997 118.698958,104.341393 117.56875,104.568021 C117.116667,107.287557 115.986458,110.460348 114.404167,113.179884 L114.404167,124.058026 C114.404167,124.511282 114.630208,124.73791 115.082292,124.964538 C118.246875,126.550934 133.391667,134.256285 147.632292,146.040939 C150.11875,148.080591 151.701042,151.253382 151.701042,154.652802 L151.701042,165.530944 L151.701042,165.530944 Z M222,45.6447501 L222,60.8288238 C222,68.7608026 215.444792,75.3330136 207.533333,75.3330136 L200.978125,75.3330136 L200.978125,31.1405603 L207.533333,31.1405603 C215.444792,31.1405603 222,37.4861434 222,45.6447501 Z M222,167.11734 L222,182.301413 C222,190.233392 215.444792,196.805603 207.533333,196.805603 L200.978125,196.805603 L200.978125,152.61315 L207.533333,152.61315 C215.444792,152.61315 222,159.185361 222,167.11734 Z M222,106.381045 L222,121.565119 C222,129.497097 215.444792,136.069308 207.533333,136.069308 L200.978125,136.069308 L200.978125,91.8768551 L207.533333,91.8768551 C215.444792,91.8768551 222,98.4490661 222,106.381045 Z" id="path-2"></path>
        <filter x="-50%" y="-50%" width="200%" height="200%" filterUnits="objectBoundingBox" id="filter-3">
            <feMorphology radius="0.5" operator="dilate" in="SourceAlpha" result="shadowSpreadOuter1"></feMorphology>
            <feOffset dx="0" dy="2" in="shadowSpreadOuter1" result="shadowOffsetOuter1"></feOffset>
            <feGaussianBlur stdDeviation="2" in="shadowOffsetOuter1" result="shadowBlurOuter1"></feGaussianBlur>
            <feComposite in="shadowBlurOuter1" in2="SourceAlpha" operator="out" result="shadowBlurOuter1"></feComposite>
            <feColorMatrix values="0 0 0 0 0   0 0 0 0 0   0 0 0 0 0  0 0 0 0.5 0" type="matrix" in="shadowBlurOuter1"></feColorMatrix>
        </filter>
    </defs>
    <g id="Playground" stroke="none" stroke-width="1" fill="none" fill-rule="evenodd">
        <g id="contacts-icon" fill-rule="nonzero">
            <use fill="black" fill-opacity="1" filter="url(#filter-3)" xlink:href="#path-2"></use>
            <use stroke="#979797" stroke-width="1" fill="url(#radialGradient-1)" fill-rule="evenodd" xlink:href="#path-2"></use>
        </g>
    </g>
</svg>