<?xml version="1.0" encoding="UTF-8"?>
<svg width="41px" height="39px" viewBox="0 0 41 39" version="1.1" xmlns="http://www.w3.org/2000/svg" xmlns:xlink="http://www.w3.org/1999/xlink">
    <!-- Generator: Sketch 42 (36781) - http://www.bohemiancoding.com/sketch -->
    <title>download-link</title>
    <desc>Created with Sketch.</desc>
    <defs></defs>
    <g id="Page-1" stroke="none" stroke-width="1" fill="none" fill-rule="evenodd">
        <g id="download-link" fill-rule="nonzero" fill="#B4B4B4">
            <g id="Group" transform="translate(0.000000, 28.196872)">
                <polygon id="Shape" points="36.0418605 0.62393745 36.0418605 5.08748998 5.00581395 5.08748998 5.00581395 0.62393745 0.524418605 0.62393745 0.524418605 9.50304731 40.427907 9.50304731 40.427907 0.62393745"></polygon>
                <path d="M35.5651163,0.62393745 L35.5651163,5.08748998 C35.7081395,4.94350441 35.8988372,4.75152366 36.0418605,4.60753809 L5.00581395,4.60753809 C5.14883721,4.75152366 5.33953488,4.94350441 5.48255814,5.08748998 L5.48255814,0.62393745 C5.48255814,0.383961508 5.24418605,0.143985565 5.00581395,0.143985565 L0.572093023,0.143985565 C0.33372093,0.143985565 0.0953488372,0.383961508 0.0953488372,0.62393745 L0.0953488372,9.5510425 C0.0953488372,9.79101844 0.33372093,10.0309944 0.572093023,10.0309944 L40.4755814,10.0309944 C40.7139535,10.0309944 40.9523256,9.79101844 40.9523256,9.5510425 L40.9523256,0.62393745 C40.9523256,0.383961508 40.7139535,0.143985565 40.4755814,0.143985565 L36.0418605,0.143985565 C35.422093,0.143985565 35.422093,1.10388933 36.0418605,1.10388933 L40.4755814,1.10388933 C40.3325581,0.959903769 40.1418605,0.767923015 39.9988372,0.62393745 L39.9988372,9.5510425 C40.1418605,9.40705694 40.3325581,9.21507618 40.4755814,9.07109062 L0.572093023,9.07109062 C0.715116279,9.21507618 0.905813953,9.40705694 1.04883721,9.5510425 L1.04883721,0.62393745 C0.905813953,0.767923015 0.715116279,0.959903769 0.572093023,1.10388933 L5.00581395,1.10388933 C4.8627907,0.959903769 4.67209302,0.767923015 4.52906977,0.62393745 L4.52906977,5.08748998 C4.52906977,5.32746592 4.76744186,5.56744186 5.00581395,5.56744186 L36.0418605,5.56744186 C36.2802326,5.56744186 36.5186047,5.32746592 36.5186047,5.08748998 L36.5186047,0.62393745 C36.5186047,-1.21569421e-14 35.5651163,-1.21569421e-14 35.5651163,0.62393745 Z" id="Shape"></path>
            </g>
            <g id="Group" transform="translate(8.581395, 0.000000)">
                <polygon id="Shape" points="0.858139535 14.0862871 6.76976744 14 6.76976744 1.3998918e-15 17.0674419 0 17.0674419 14 23.0267442 14.0862871 11.9186047 28.8208099"></polygon>
            </g>
        </g>
    </g>
</svg>