<svg xmlns="http://www.w3.org/2000/svg" xmlns:xlink="http://www.w3.org/1999/xlink" version="1.1" x="0px" y="0px" viewBox="0 0 24 24" style="enable-background:new 0 0 24 24;" xml:space="preserve"><g><path d="M12,5.282c-3.704,0-6.718,3.014-6.718,6.718S8.296,18.718,12,18.718s6.718-3.014,6.718-6.718S15.704,5.282,12,5.282z    M12,18.158c-3.395,0-6.158-2.762-6.158-6.158c0-3.395,2.762-6.158,6.158-6.158S18.158,8.605,18.158,12   C18.158,15.395,15.395,18.158,12,18.158z"></path><path d="M12.28,11.884V7.863c0-0.155-0.125-0.28-0.28-0.28s-0.28,0.125-0.28,0.28V12c0,0.074,0.03,0.146,0.082,0.198l2.931,2.931   c0.055,0.055,0.126,0.082,0.198,0.082c0.072,0,0.143-0.027,0.198-0.082c0.109-0.109,0.109-0.287,0-0.396L12.28,11.884z"></path></g></svg>