<?xml version="1.0" encoding="UTF-8"?>
<svg width="80px" height="59px" viewBox="0 0 80 59" version="1.1" xmlns="http://www.w3.org/2000/svg" xmlns:xlink="http://www.w3.org/1999/xlink">
    <!-- Generator: Sketch 42 (36781) - http://www.bohemiancoding.com/sketch -->
    <title>Group 5</title>
    <desc>Created with Sketch.</desc>
    <defs>
        <path d="M62.5,0.5 L17.5,54.5" id="path-1"></path>
        <filter x="-50%" y="-50%" width="200%" height="200%" filterUnits="objectBoundingBox" id="filter-2">
            <feMorphology radius="3.5" operator="dilate" in="SourceAlpha" result="shadowSpreadOuter1"></feMorphology>
            <feOffset dx="1" dy="3" in="shadowSpreadOuter1" result="shadowOffsetOuter1"></feOffset>
            <feComposite in="shadowOffsetOuter1" in2="SourceAlpha" operator="out" result="shadowOffsetOuter1"></feComposite>
            <feColorMatrix values="0 0 0 0 1   0 0 0 0 1   0 0 0 0 1  0 0 0 1 0" type="matrix" in="shadowOffsetOuter1"></feColorMatrix>
        </filter>
    </defs>
    <g id="Icons" stroke="none" stroke-width="1" fill="none" fill-rule="evenodd">
        <g id="Group-5" transform="translate(0.000000, 2.000000)">
            <g id="noun_800026" transform="translate(0.000000, 3.000000)" fill-rule="nonzero" fill="#818181">
                <g id="Group">
                    <path d="M79.3765871,21.7308989 C69.0052158,7.73651685 55.0298324,0.0264044944 40,0.0264044944 C24.9701676,0.0264044944 10.9947842,7.73651685 0.62341293,21.7308989 C-0.179227334,22.8134831 -0.179227334,24.1865169 0.62341293,25.2691011 C10.9947842,39.2634831 24.9701676,46.9735955 40,46.9735955 C55.0298324,46.9735955 69.0052158,39.2634831 79.3765871,25.2691011 C80.1792273,24.1865169 80.1792273,22.8134831 79.3765871,21.7308989 Z M40,40.2668539 C28.4640135,40.2668539 17.4473824,34.3390449 8.77571992,23.5 C17.4316443,12.6609551 28.4482754,6.73314607 40,6.73314607 C51.5517246,6.73314607 62.5526176,12.6609551 71.2242801,23.5 C62.5526176,34.3390449 51.5359865,40.2668539 40,40.2668539 Z" id="Shape"></path>
                    <path d="M47.9949266,20.1466292 C45.7916003,20.1466292 43.9974633,18.641573 43.9974633,16.7932584 C43.9974633,15.8823034 44.4381285,15.0505618 45.1463405,14.4432584 C43.5882741,13.8095506 41.8570892,13.4398876 40,13.4398876 C33.3742833,13.4398876 28.0076102,17.9418539 28.0076102,23.5 C28.0076102,29.0581461 33.3742833,33.5601124 40,33.5601124 C46.6257167,33.5601124 51.9923898,29.0581461 51.9923898,23.5 C51.9923898,21.9421348 51.5359865,20.4898876 50.7962985,19.1828652 C50.0723484,19.7769663 49.0808516,20.1466292 47.9949266,20.1466292 Z" id="Shape"></path>
                </g>
            </g>
            <g id="Path-2">
                <use fill="black" fill-opacity="1" filter="url(#filter-2)" xlink:href="#path-1"></use>
                <use stroke="#818181" stroke-width="7" fill="#818181" fill-rule="evenodd" xlink:href="#path-1"></use>
            </g>
        </g>
    </g>
</svg>