<?xml version="1.0" encoding="UTF-8"?>
<svg width="348px" height="348px" viewBox="0 0 348 348" version="1.1" xmlns="http://www.w3.org/2000/svg" xmlns:xlink="http://www.w3.org/1999/xlink">
    <!-- Generator: Sketch 42 (36781) - http://www.bohemiancoding.com/sketch -->
    <title>security-header</title>
    <desc>Created with Sketch.</desc>
    <defs>
        <linearGradient x1="49.9999583%" y1="38.072179%" x2="49.9999554%" y2="332.235449%" id="linearGradient-1">
            <stop stop-color="#FFFFFF" offset="0%"></stop>
            <stop stop-color="#AFDBA5" offset="13.155692%"></stop>
            <stop stop-color="#31A217" offset="100%"></stop>
        </linearGradient>
        <path d="M159,271.888889 C159,271.888889 67,231 67,108.333333 L159,47 L251,108.333333 C251,231 159,271.817333 159,271.888889 Z M94.0173333,159.444444 C104.096444,197.103111 127.341778,228.219556 158.407111,248.244889 L159,248.602667 L159,159.444444 L224.003111,159.444444 C227.356,147.545778 229.604889,133.745778 230.269333,119.526667 L159,71.5333333 L159,159.444444 L94.0173333,159.444444 L94.0173333,159.444444 Z" id="path-2"></path>
        <filter x="-50%" y="-50%" width="200%" height="200%" filterUnits="objectBoundingBox" id="filter-3">
            <feOffset dx="0" dy="1" in="SourceAlpha" result="shadowOffsetOuter1"></feOffset>
            <feGaussianBlur stdDeviation="2.5" in="shadowOffsetOuter1" result="shadowBlurOuter1"></feGaussianBlur>
            <feColorMatrix values="0 0 0 0 0   0 0 0 0 0   0 0 0 0 0  0 0 0 0.5 0" type="matrix" in="shadowBlurOuter1"></feColorMatrix>
        </filter>
    </defs>
    <g id="Playground" stroke="none" stroke-width="1" fill="none" fill-rule="evenodd">
        <g id="security-header" transform="translate(15.000000, 15.000000)">
            <circle id="Oval-3" stroke="#31A217" stroke-width="30" fill="#31A217" cx="159" cy="159" r="159"></circle>
            <g id="security-icon" fill-rule="nonzero">
                <use fill="black" fill-opacity="1" filter="url(#filter-3)" xlink:href="#path-2"></use>
                <use fill="url(#linearGradient-1)" fill-rule="evenodd" xlink:href="#path-2"></use>
            </g>
        </g>
    </g>
</svg>